<mxfile host="Electron" modified="2023-08-28T16:28:40.239Z" agent="Mozilla/5.0 (Windows NT 10.0; Win64; x64) AppleWebKit/537.36 (KHTML, like Gecko) draw.io/21.6.1 Chrome/112.0.5615.204 Electron/24.6.1 Safari/537.36" etag="DsQXEcZAa-thBpoDGqWq" version="21.6.1" type="device">
  <diagram name="Page-1" id="0xnfDL4At7iedvZbW3gl">
    <mxGraphModel dx="2360" dy="5455" grid="1" gridSize="10" guides="1" tooltips="1" connect="1" arrows="1" fold="1" page="1" pageScale="1" pageWidth="1400" pageHeight="1800" math="0" shadow="0">
      <root>
        <mxCell id="0" />
        <mxCell id="1" parent="0" />
        <mxCell id="4v_UhoilL7VhXfVtBuKw-1" value="" style="rounded=0;whiteSpace=wrap;html=1;" parent="1" vertex="1">
          <mxGeometry x="215" y="556" width="730" height="960" as="geometry" />
        </mxCell>
        <mxCell id="4v_UhoilL7VhXfVtBuKw-8" style="edgeStyle=orthogonalEdgeStyle;rounded=0;orthogonalLoop=1;jettySize=auto;html=1;" parent="1" source="4v_UhoilL7VhXfVtBuKw-2" target="4v_UhoilL7VhXfVtBuKw-4" edge="1">
          <mxGeometry relative="1" as="geometry" />
        </mxCell>
        <mxCell id="4v_UhoilL7VhXfVtBuKw-2" value="Incoming Midi&amp;nbsp;&lt;br style=&quot;font-size: 17px;&quot;&gt;and&amp;nbsp;&lt;br style=&quot;font-size: 17px;&quot;&gt;DAW Status&lt;br style=&quot;font-size: 17px;&quot;&gt;(Tempo, Meter, Position)" style="rounded=0;whiteSpace=wrap;html=1;fontSize=17;fontStyle=2" parent="1" vertex="1">
          <mxGeometry x="350" y="226" width="170" height="116" as="geometry" />
        </mxCell>
        <mxCell id="4v_UhoilL7VhXfVtBuKw-62" style="edgeStyle=orthogonalEdgeStyle;rounded=0;orthogonalLoop=1;jettySize=auto;html=1;entryX=0.231;entryY=0.011;entryDx=0;entryDy=0;entryPerimeter=0;" parent="1" target="4v_UhoilL7VhXfVtBuKw-60" edge="1">
          <mxGeometry relative="1" as="geometry">
            <mxPoint x="434" y="340" as="sourcePoint" />
            <mxPoint x="440.17499999999995" y="528.63" as="targetPoint" />
            <Array as="points">
              <mxPoint x="435" y="658" />
            </Array>
          </mxGeometry>
        </mxCell>
        <mxCell id="4v_UhoilL7VhXfVtBuKw-63" value="Trigger with &lt;br style=&quot;font-size: 16px;&quot;&gt;&lt;b style=&quot;font-size: 16px;&quot;&gt;EventFromHost&lt;br&gt;(one at a time)&lt;br&gt;&lt;/b&gt;" style="edgeLabel;html=1;align=center;verticalAlign=middle;resizable=0;points=[];fontSize=16;" parent="4v_UhoilL7VhXfVtBuKw-62" vertex="1" connectable="0">
          <mxGeometry x="0.0861" relative="1" as="geometry">
            <mxPoint x="1" y="77" as="offset" />
          </mxGeometry>
        </mxCell>
        <mxCell id="4v_UhoilL7VhXfVtBuKw-4" value="NMFx Wrapper" style="shape=process;whiteSpace=wrap;html=1;backgroundOutline=1;fontSize=17;fontStyle=2" parent="1" vertex="1">
          <mxGeometry x="350" y="366" width="170" height="50" as="geometry" />
        </mxCell>
        <mxCell id="4v_UhoilL7VhXfVtBuKw-7" style="edgeStyle=orthogonalEdgeStyle;rounded=0;orthogonalLoop=1;jettySize=auto;html=1;entryX=0;entryY=0.5;entryDx=0;entryDy=0;" parent="1" source="4v_UhoilL7VhXfVtBuKw-5" target="4v_UhoilL7VhXfVtBuKw-4" edge="1">
          <mxGeometry relative="1" as="geometry">
            <Array as="points">
              <mxPoint x="130" y="391" />
            </Array>
          </mxGeometry>
        </mxCell>
        <mxCell id="4v_UhoilL7VhXfVtBuKw-5" value="&lt;b style=&quot;font-size: 19px;&quot;&gt;Configs_HostEvents.h&lt;/b&gt;&lt;br style=&quot;font-size: 19px;&quot;&gt;&lt;br&gt;Specify What Information&amp;nbsp;&lt;br&gt;You Need From Host" style="whiteSpace=wrap;html=1;shape=mxgraph.basic.document;fillColor=#dae8fc;strokeColor=#6c8ebf;fontSize=19;" parent="1" vertex="1">
          <mxGeometry x="65" y="30" width="260" height="160" as="geometry" />
        </mxCell>
        <mxCell id="4v_UhoilL7VhXfVtBuKw-16" style="edgeStyle=orthogonalEdgeStyle;rounded=0;orthogonalLoop=1;jettySize=auto;html=1;entryX=0;entryY=0.5;entryDx=0;entryDy=0;" parent="1" source="4v_UhoilL7VhXfVtBuKw-9" target="4v_UhoilL7VhXfVtBuKw-60" edge="1">
          <mxGeometry relative="1" as="geometry">
            <mxPoint x="-10" y="796" as="targetPoint" />
            <Array as="points">
              <mxPoint x="105" y="751" />
            </Array>
          </mxGeometry>
        </mxCell>
        <mxCell id="4v_UhoilL7VhXfVtBuKw-64" value="Trigger&amp;nbsp; with &lt;br&gt;&lt;b&gt;GuiParams&lt;/b&gt;" style="edgeLabel;html=1;align=center;verticalAlign=middle;resizable=0;points=[];fontSize=16;" parent="4v_UhoilL7VhXfVtBuKw-16" vertex="1" connectable="0">
          <mxGeometry x="0.1858" y="2" relative="1" as="geometry">
            <mxPoint x="43" y="2" as="offset" />
          </mxGeometry>
        </mxCell>
        <mxCell id="4v_UhoilL7VhXfVtBuKw-133" style="edgeStyle=orthogonalEdgeStyle;rounded=0;orthogonalLoop=1;jettySize=auto;html=1;exitX=0.5;exitY=1;exitDx=0;exitDy=0;entryX=0;entryY=0.5;entryDx=0;entryDy=0;fontFamily=Helvetica;fontSize=16;fontColor=default;fillColor=#dae8fc;strokeColor=#6c8ebf;strokeWidth=11;" parent="1" source="4v_UhoilL7VhXfVtBuKw-9" target="4v_UhoilL7VhXfVtBuKw-86" edge="1">
          <mxGeometry relative="1" as="geometry" />
        </mxCell>
        <mxCell id="4v_UhoilL7VhXfVtBuKw-134" style="edgeStyle=orthogonalEdgeStyle;rounded=0;orthogonalLoop=1;jettySize=auto;html=1;exitX=0.5;exitY=1;exitDx=0;exitDy=0;entryX=0;entryY=0.5;entryDx=0;entryDy=0;fontFamily=Helvetica;fontSize=16;fontColor=default;" parent="1" source="4v_UhoilL7VhXfVtBuKw-9" target="4v_UhoilL7VhXfVtBuKw-92" edge="1">
          <mxGeometry relative="1" as="geometry" />
        </mxCell>
        <mxCell id="4v_UhoilL7VhXfVtBuKw-9" value="NMFx Wrapper" style="shape=process;whiteSpace=wrap;html=1;backgroundOutline=1;fontSize=17;fontStyle=2" parent="1" vertex="1">
          <mxGeometry x="20" y="656" width="170" height="50" as="geometry" />
        </mxCell>
        <mxCell id="4v_UhoilL7VhXfVtBuKw-14" style="edgeStyle=orthogonalEdgeStyle;rounded=0;orthogonalLoop=1;jettySize=auto;html=1;" parent="1" source="4v_UhoilL7VhXfVtBuKw-13" target="4v_UhoilL7VhXfVtBuKw-9" edge="1">
          <mxGeometry relative="1" as="geometry" />
        </mxCell>
        <mxCell id="4v_UhoilL7VhXfVtBuKw-13" value="Parameter Change&lt;br style=&quot;font-size: 17px;&quot;&gt;From GUI or DAW" style="rounded=0;whiteSpace=wrap;html=1;fontSize=17;fontStyle=2" parent="1" vertex="1">
          <mxGeometry x="20" y="516" width="170" height="70" as="geometry" />
        </mxCell>
        <mxCell id="4v_UhoilL7VhXfVtBuKw-58" style="edgeStyle=orthogonalEdgeStyle;rounded=0;orthogonalLoop=1;jettySize=auto;html=1;entryX=1;entryY=0.5;entryDx=0;entryDy=0;" parent="1" source="4v_UhoilL7VhXfVtBuKw-15" target="4v_UhoilL7VhXfVtBuKw-46" edge="1">
          <mxGeometry relative="1" as="geometry">
            <Array as="points">
              <mxPoint x="862" y="329" />
            </Array>
          </mxGeometry>
        </mxCell>
        <mxCell id="4v_UhoilL7VhXfVtBuKw-15" value="NMFx GUI Renderer&lt;br style=&quot;font-size: 17px;&quot;&gt;and Parameter Handler" style="shape=process;whiteSpace=wrap;html=1;backgroundOutline=1;fontSize=17;" parent="1" vertex="1">
          <mxGeometry x="777" y="216" width="170" height="104" as="geometry" />
        </mxCell>
        <mxCell id="4v_UhoilL7VhXfVtBuKw-19" style="edgeStyle=orthogonalEdgeStyle;rounded=0;orthogonalLoop=1;jettySize=auto;html=1;entryX=0.5;entryY=0;entryDx=0;entryDy=0;" parent="1" source="4v_UhoilL7VhXfVtBuKw-18" target="4v_UhoilL7VhXfVtBuKw-15" edge="1">
          <mxGeometry relative="1" as="geometry" />
        </mxCell>
        <mxCell id="4v_UhoilL7VhXfVtBuKw-18" value="&lt;b style=&quot;font-size: 19px;&quot;&gt;Configs_GUI.h&lt;br style=&quot;font-size: 19px;&quot;&gt;&lt;/b&gt;&lt;br style=&quot;font-size: 19px;&quot;&gt;Specify Required Interactive Parameters&lt;br style=&quot;font-size: 19px;&quot;&gt;" style="whiteSpace=wrap;html=1;shape=mxgraph.basic.document;fillColor=#d5e8d4;strokeColor=#82b366;fontSize=19;" parent="1" vertex="1">
          <mxGeometry x="753" y="30" width="218" height="140" as="geometry" />
        </mxCell>
        <mxCell id="4v_UhoilL7VhXfVtBuKw-26" style="edgeStyle=orthogonalEdgeStyle;rounded=0;orthogonalLoop=1;jettySize=auto;html=1;entryX=0.743;entryY=0.01;entryDx=0;entryDy=0;entryPerimeter=0;" parent="1" source="4v_UhoilL7VhXfVtBuKw-27" target="4v_UhoilL7VhXfVtBuKw-60" edge="1">
          <mxGeometry relative="1" as="geometry">
            <mxPoint x="655" y="536" as="targetPoint" />
          </mxGeometry>
        </mxCell>
        <mxCell id="4v_UhoilL7VhXfVtBuKw-68" value="Trigger with&amp;nbsp;&lt;br&gt;&lt;b&gt;MidiFileEvent&lt;/b&gt;&lt;br&gt;(one at a time)" style="edgeLabel;html=1;align=center;verticalAlign=middle;resizable=0;points=[];fontSize=16;fontFamily=Helvetica;fontColor=default;" parent="4v_UhoilL7VhXfVtBuKw-26" vertex="1" connectable="0">
          <mxGeometry x="0.3151" y="-2" relative="1" as="geometry">
            <mxPoint y="15" as="offset" />
          </mxGeometry>
        </mxCell>
        <mxCell id="4v_UhoilL7VhXfVtBuKw-27" value="NMFx Wrapper" style="shape=process;whiteSpace=wrap;html=1;backgroundOutline=1;fontSize=17;fontStyle=2" parent="1" vertex="1">
          <mxGeometry x="535" y="366" width="170" height="50" as="geometry" />
        </mxCell>
        <mxCell id="4v_UhoilL7VhXfVtBuKw-29" value="MIDI File Dragged?" style="rounded=0;whiteSpace=wrap;html=1;fontSize=17;fontStyle=2" parent="1" vertex="1">
          <mxGeometry x="535" y="226" width="170" height="70" as="geometry" />
        </mxCell>
        <mxCell id="4v_UhoilL7VhXfVtBuKw-56" value="" style="group;fontSize=17;" parent="1" vertex="1" connectable="0">
          <mxGeometry x="595" y="294" width="90" height="72" as="geometry" />
        </mxCell>
        <mxCell id="4v_UhoilL7VhXfVtBuKw-46" value="" style="rounded=0;whiteSpace=wrap;html=1;fillColor=none;strokeColor=none;" parent="4v_UhoilL7VhXfVtBuKw-56" vertex="1">
          <mxGeometry width="90" height="70" as="geometry" />
        </mxCell>
        <mxCell id="4v_UhoilL7VhXfVtBuKw-47" value="" style="group" parent="4v_UhoilL7VhXfVtBuKw-56" vertex="1" connectable="0">
          <mxGeometry x="10" width="50" height="72" as="geometry" />
        </mxCell>
        <mxCell id="4v_UhoilL7VhXfVtBuKw-48" value="" style="group" parent="4v_UhoilL7VhXfVtBuKw-47" vertex="1" connectable="0">
          <mxGeometry x="11.288772690539078" width="6.243746340235633" height="27.64285714285714" as="geometry" />
        </mxCell>
        <mxCell id="4v_UhoilL7VhXfVtBuKw-49" value="" style="endArrow=none;html=1;rounded=0;" parent="4v_UhoilL7VhXfVtBuKw-48" target="4v_UhoilL7VhXfVtBuKw-50" edge="1">
          <mxGeometry width="50" height="50" relative="1" as="geometry">
            <mxPoint x="3.1218731701178166" as="sourcePoint" />
            <mxPoint x="3.1218731701178166" y="25.71428571428571" as="targetPoint" />
          </mxGeometry>
        </mxCell>
        <mxCell id="4v_UhoilL7VhXfVtBuKw-50" value="" style="ellipse;whiteSpace=wrap;html=1;aspect=fixed;" parent="4v_UhoilL7VhXfVtBuKw-48" vertex="1">
          <mxGeometry y="21.21428571428571" width="6.101190476190475" height="6.101190476190475" as="geometry" />
        </mxCell>
        <mxCell id="4v_UhoilL7VhXfVtBuKw-51" value="" style="group;rotation=-30;" parent="4v_UhoilL7VhXfVtBuKw-47" vertex="1" connectable="0">
          <mxGeometry x="6.293775618350571" y="27.64285714285714" width="6.243746340235633" height="27.64285714285714" as="geometry" />
        </mxCell>
        <mxCell id="4v_UhoilL7VhXfVtBuKw-52" value="" style="endArrow=none;html=1;rounded=0;" parent="4v_UhoilL7VhXfVtBuKw-51" target="4v_UhoilL7VhXfVtBuKw-53" edge="1">
          <mxGeometry width="50" height="50" relative="1" as="geometry">
            <mxPoint x="-3.7462478041413796" y="1.9285714285714284" as="sourcePoint" />
            <mxPoint x="8.741244876329885" y="24.428571428571427" as="targetPoint" />
          </mxGeometry>
        </mxCell>
        <mxCell id="4v_UhoilL7VhXfVtBuKw-53" value="" style="ellipse;whiteSpace=wrap;html=1;aspect=fixed;rotation=-30;" parent="4v_UhoilL7VhXfVtBuKw-51" vertex="1">
          <mxGeometry x="4.994997072188506" y="19.928571428571427" width="6.101190476190475" height="6.101190476190475" as="geometry" />
        </mxCell>
        <mxCell id="4v_UhoilL7VhXfVtBuKw-54" value="" style="endArrow=none;html=1;rounded=0;exitX=0.235;exitY=0.911;exitDx=0;exitDy=0;exitPerimeter=0;" parent="4v_UhoilL7VhXfVtBuKw-47" source="4v_UhoilL7VhXfVtBuKw-53" edge="1">
          <mxGeometry width="50" height="50" relative="1" as="geometry">
            <mxPoint x="14.410645860656896" y="57.21428571428571" as="sourcePoint" />
            <mxPoint x="14.285770933852188" y="72" as="targetPoint" />
          </mxGeometry>
        </mxCell>
        <mxCell id="4v_UhoilL7VhXfVtBuKw-55" value="&lt;b&gt;Enable&lt;/b&gt;" style="text;html=1;strokeColor=none;fillColor=none;align=center;verticalAlign=middle;whiteSpace=wrap;rounded=0;" parent="4v_UhoilL7VhXfVtBuKw-56" vertex="1">
          <mxGeometry x="39.99752195858622" y="27.64285714285711" width="37.4624780414138" height="19.285714285714285" as="geometry" />
        </mxCell>
        <mxCell id="4v_UhoilL7VhXfVtBuKw-83" style="edgeStyle=orthogonalEdgeStyle;rounded=0;orthogonalLoop=1;jettySize=auto;html=1;entryX=0.504;entryY=0.02;entryDx=0;entryDy=0;entryPerimeter=0;fontFamily=Helvetica;fontSize=16;fontColor=default;" parent="1" source="4v_UhoilL7VhXfVtBuKw-60" target="4v_UhoilL7VhXfVtBuKw-81" edge="1">
          <mxGeometry relative="1" as="geometry" />
        </mxCell>
        <mxCell id="4v_UhoilL7VhXfVtBuKw-115" style="edgeStyle=orthogonalEdgeStyle;rounded=0;orthogonalLoop=1;jettySize=auto;html=1;exitX=1;exitY=0.75;exitDx=0;exitDy=0;entryX=0.567;entryY=1;entryDx=0;entryDy=0;entryPerimeter=0;fontFamily=Helvetica;fontSize=16;fontColor=default;" parent="1" source="4v_UhoilL7VhXfVtBuKw-60" target="4v_UhoilL7VhXfVtBuKw-70" edge="1">
          <mxGeometry relative="1" as="geometry" />
        </mxCell>
        <mxCell id="4v_UhoilL7VhXfVtBuKw-60" value="" style="rounded=1;whiteSpace=wrap;html=1;fillColor=#d5e8d4;strokeColor=#82b366;" parent="1" vertex="1">
          <mxGeometry x="350" y="656" width="365" height="190" as="geometry" />
        </mxCell>
        <mxCell id="4v_UhoilL7VhXfVtBuKw-61" value="&lt;h1 style=&quot;font-size: 19px;&quot;&gt;&lt;span style=&quot;background-color: initial; font-size: 19px;&quot;&gt;&lt;font style=&quot;font-size: 19px;&quot;&gt;ITP_Deploy.cpp&lt;/font&gt;&lt;/span&gt;&lt;/h1&gt;&lt;h1 style=&quot;font-size: 19px;&quot;&gt;&lt;ul style=&quot;font-size: 19px;&quot;&gt;&lt;li style=&quot;font-size: 19px;&quot;&gt;&lt;span style=&quot;font-weight: 400; font-size: 19px;&quot;&gt;Process/Tokenize Incoming Information&lt;/span&gt;&lt;/li&gt;&lt;/ul&gt;&lt;ul style=&quot;font-size: 19px;&quot;&gt;&lt;li style=&quot;font-size: 19px;&quot;&gt;&lt;span style=&quot;font-weight: 400; font-size: 19px;&quot;&gt;If Ready, Wrap in model_input and send to next thread&lt;/span&gt;&lt;/li&gt;&lt;/ul&gt;&lt;/h1&gt;" style="text;html=1;strokeColor=none;fillColor=none;spacing=5;spacingTop=-20;whiteSpace=wrap;overflow=hidden;rounded=0;fontSize=19;" parent="1" vertex="1">
          <mxGeometry x="360" y="666" width="370" height="190" as="geometry" />
        </mxCell>
        <mxCell id="4v_UhoilL7VhXfVtBuKw-79" style="edgeStyle=orthogonalEdgeStyle;curved=1;rounded=0;orthogonalLoop=1;jettySize=auto;html=1;entryX=1;entryY=0.5;entryDx=0;entryDy=0;fontFamily=Helvetica;fontSize=16;fontColor=default;" parent="1" source="4v_UhoilL7VhXfVtBuKw-69" target="4v_UhoilL7VhXfVtBuKw-78" edge="1">
          <mxGeometry relative="1" as="geometry" />
        </mxCell>
        <mxCell id="4v_UhoilL7VhXfVtBuKw-69" value="&lt;b style=&quot;font-size: 19px;&quot;&gt;CustomStructs.h&lt;br style=&quot;font-size: 19px;&quot;&gt;&lt;/b&gt;&lt;br style=&quot;font-size: 19px;&quot;&gt;All Structures Modifiable by You are Here" style="whiteSpace=wrap;html=1;shape=mxgraph.basic.document;fillColor=#d5e8d4;strokeColor=#82b366;fontSize=19;" parent="1" vertex="1">
          <mxGeometry x="1065" y="378.63" width="210" height="150" as="geometry" />
        </mxCell>
        <mxCell id="4v_UhoilL7VhXfVtBuKw-116" style="edgeStyle=orthogonalEdgeStyle;rounded=0;orthogonalLoop=1;jettySize=auto;html=1;exitX=0.5;exitY=0;exitDx=0;exitDy=0;entryX=0.995;entryY=0.225;entryDx=0;entryDy=0;entryPerimeter=0;fontFamily=Helvetica;fontSize=16;fontColor=default;" parent="1" source="4v_UhoilL7VhXfVtBuKw-70" target="4v_UhoilL7VhXfVtBuKw-60" edge="1">
          <mxGeometry relative="1" as="geometry">
            <Array as="points">
              <mxPoint x="847" y="696" />
              <mxPoint x="751" y="696" />
              <mxPoint x="751" y="699" />
            </Array>
          </mxGeometry>
        </mxCell>
        <mxCell id="4v_UhoilL7VhXfVtBuKw-70" value="ITPdata" style="ellipse;whiteSpace=wrap;html=1;labelBackgroundColor=default;fontFamily=Helvetica;fontSize=16;fontColor=default;fillColor=none;gradientColor=none;" parent="1" vertex="1">
          <mxGeometry x="775" y="726" width="120" height="50" as="geometry" />
        </mxCell>
        <mxCell id="4v_UhoilL7VhXfVtBuKw-84" style="edgeStyle=orthogonalEdgeStyle;rounded=0;orthogonalLoop=1;jettySize=auto;html=1;entryX=1;entryY=0.5;entryDx=0;entryDy=0;fontFamily=Helvetica;fontSize=16;fontColor=default;dashed=1;" parent="1" source="4v_UhoilL7VhXfVtBuKw-78" target="4v_UhoilL7VhXfVtBuKw-81" edge="1">
          <mxGeometry relative="1" as="geometry">
            <Array as="points">
              <mxPoint x="1060" y="856" />
              <mxPoint x="859" y="856" />
              <mxPoint x="859" y="921" />
            </Array>
          </mxGeometry>
        </mxCell>
        <mxCell id="4v_UhoilL7VhXfVtBuKw-117" style="edgeStyle=orthogonalEdgeStyle;rounded=0;orthogonalLoop=1;jettySize=auto;html=1;exitX=0.5;exitY=1;exitDx=0;exitDy=0;entryX=1;entryY=0.5;entryDx=0;entryDy=0;fontFamily=Helvetica;fontSize=16;fontColor=default;dashed=1;" parent="1" source="4v_UhoilL7VhXfVtBuKw-78" target="4v_UhoilL7VhXfVtBuKw-109" edge="1">
          <mxGeometry relative="1" as="geometry" />
        </mxCell>
        <mxCell id="4v_UhoilL7VhXfVtBuKw-118" style="edgeStyle=orthogonalEdgeStyle;rounded=0;orthogonalLoop=1;jettySize=auto;html=1;entryX=1;entryY=0.5;entryDx=0;entryDy=0;fontFamily=Helvetica;fontSize=16;fontColor=default;dashed=1;" parent="1" source="4v_UhoilL7VhXfVtBuKw-78" target="4v_UhoilL7VhXfVtBuKw-101" edge="1">
          <mxGeometry relative="1" as="geometry">
            <Array as="points">
              <mxPoint x="1060" y="1221" />
            </Array>
          </mxGeometry>
        </mxCell>
        <mxCell id="4v_UhoilL7VhXfVtBuKw-119" style="edgeStyle=orthogonalEdgeStyle;rounded=0;orthogonalLoop=1;jettySize=auto;html=1;exitX=0.5;exitY=1;exitDx=0;exitDy=0;entryX=1;entryY=0.5;entryDx=0;entryDy=0;fontFamily=Helvetica;fontSize=16;fontColor=default;dashed=1;" parent="1" source="4v_UhoilL7VhXfVtBuKw-78" target="4v_UhoilL7VhXfVtBuKw-110" edge="1">
          <mxGeometry relative="1" as="geometry" />
        </mxCell>
        <mxCell id="4v_UhoilL7VhXfVtBuKw-120" style="edgeStyle=orthogonalEdgeStyle;rounded=0;orthogonalLoop=1;jettySize=auto;html=1;exitX=0.5;exitY=1;exitDx=0;exitDy=0;entryX=1;entryY=0.5;entryDx=0;entryDy=0;fontFamily=Helvetica;fontSize=16;fontColor=default;dashed=1;" parent="1" source="4v_UhoilL7VhXfVtBuKw-78" target="4v_UhoilL7VhXfVtBuKw-70" edge="1">
          <mxGeometry relative="1" as="geometry" />
        </mxCell>
        <mxCell id="4v_UhoilL7VhXfVtBuKw-78" value="NMFx Wrapper&lt;br style=&quot;font-size: 16px;&quot;&gt;Instantiates the Structs in here" style="shape=process;whiteSpace=wrap;html=1;backgroundOutline=1;fontSize=16;fontStyle=2" parent="1" vertex="1">
          <mxGeometry x="975" y="586" width="170" height="70" as="geometry" />
        </mxCell>
        <mxCell id="4v_UhoilL7VhXfVtBuKw-89" style="edgeStyle=orthogonalEdgeStyle;rounded=0;orthogonalLoop=1;jettySize=auto;html=1;exitX=0.5;exitY=1;exitDx=0;exitDy=0;entryX=0.5;entryY=0;entryDx=0;entryDy=0;fontFamily=Helvetica;fontSize=16;fontColor=default;" parent="1" source="4v_UhoilL7VhXfVtBuKw-81" target="4v_UhoilL7VhXfVtBuKw-85" edge="1">
          <mxGeometry relative="1" as="geometry" />
        </mxCell>
        <mxCell id="4v_UhoilL7VhXfVtBuKw-90" value="Trigger" style="edgeLabel;html=1;align=center;verticalAlign=middle;resizable=0;points=[];fontSize=16;fontFamily=Helvetica;fontColor=default;" parent="4v_UhoilL7VhXfVtBuKw-89" vertex="1" connectable="0">
          <mxGeometry x="-0.025" relative="1" as="geometry">
            <mxPoint y="-4" as="offset" />
          </mxGeometry>
        </mxCell>
        <mxCell id="4v_UhoilL7VhXfVtBuKw-81" value="model_input" style="ellipse;whiteSpace=wrap;html=1;labelBackgroundColor=default;fontFamily=Helvetica;fontSize=16;fontColor=default;fillColor=none;gradientColor=none;" parent="1" vertex="1">
          <mxGeometry x="472.5" y="896" width="120" height="50" as="geometry" />
        </mxCell>
        <mxCell id="4v_UhoilL7VhXfVtBuKw-113" style="edgeStyle=orthogonalEdgeStyle;rounded=0;orthogonalLoop=1;jettySize=auto;html=1;exitX=1;exitY=0.75;exitDx=0;exitDy=0;entryX=0.5;entryY=1;entryDx=0;entryDy=0;fontFamily=Helvetica;fontSize=16;fontColor=default;" parent="1" source="4v_UhoilL7VhXfVtBuKw-85" target="4v_UhoilL7VhXfVtBuKw-109" edge="1">
          <mxGeometry relative="1" as="geometry" />
        </mxCell>
        <mxCell id="4v_UhoilL7VhXfVtBuKw-85" value="" style="rounded=1;whiteSpace=wrap;html=1;fillColor=#d5e8d4;strokeColor=#82b366;" parent="1" vertex="1">
          <mxGeometry x="350" y="1006" width="365" height="140" as="geometry" />
        </mxCell>
        <mxCell id="4v_UhoilL7VhXfVtBuKw-86" value="&lt;h1 style=&quot;font-size: 19px;&quot;&gt;&lt;span style=&quot;background-color: initial; font-size: 19px;&quot;&gt;&lt;font style=&quot;font-size: 19px;&quot;&gt;MDL_Deploy.cpp&lt;/font&gt;&lt;/span&gt;&lt;/h1&gt;&lt;h1 style=&quot;font-size: 19px;&quot;&gt;&lt;ul style=&quot;font-size: 19px;&quot;&gt;&lt;li style=&quot;font-size: 19px;&quot;&gt;&lt;span style=&quot;font-weight: 400; font-size: 19px;&quot;&gt;Run Inference&lt;/span&gt;&lt;/li&gt;&lt;/ul&gt;&lt;ul style=&quot;font-size: 19px;&quot;&gt;&lt;li style=&quot;font-size: 19px;&quot;&gt;&lt;span style=&quot;font-weight: 400; font-size: 19px;&quot;&gt;If Ready, Wrap in model_output and send to next thread&lt;/span&gt;&lt;/li&gt;&lt;/ul&gt;&lt;/h1&gt;" style="text;html=1;strokeColor=#6c8ebf;fillColor=#dae8fc;spacing=5;spacingTop=-20;whiteSpace=wrap;overflow=hidden;rounded=0;fontSize=19;strokeWidth=9;" parent="1" vertex="1">
          <mxGeometry x="350" y="1006" width="365" height="140" as="geometry" />
        </mxCell>
        <mxCell id="4v_UhoilL7VhXfVtBuKw-111" style="edgeStyle=orthogonalEdgeStyle;rounded=0;orthogonalLoop=1;jettySize=auto;html=1;exitX=1;exitY=0.75;exitDx=0;exitDy=0;entryX=0.5;entryY=1;entryDx=0;entryDy=0;fontFamily=Helvetica;fontSize=16;fontColor=default;" parent="1" source="4v_UhoilL7VhXfVtBuKw-91" target="4v_UhoilL7VhXfVtBuKw-110" edge="1">
          <mxGeometry relative="1" as="geometry" />
        </mxCell>
        <mxCell id="4v_UhoilL7VhXfVtBuKw-91" value="" style="rounded=1;whiteSpace=wrap;html=1;fillColor=#f8cecc;strokeColor=#b85450;strokeWidth=8;" parent="1" vertex="1">
          <mxGeometry x="350" y="1316" width="365" height="160" as="geometry" />
        </mxCell>
        <mxCell id="4v_UhoilL7VhXfVtBuKw-127" style="edgeStyle=orthogonalEdgeStyle;rounded=0;orthogonalLoop=1;jettySize=auto;html=1;fontFamily=Helvetica;fontSize=16;fontColor=default;fillColor=#f8cecc;strokeColor=#b85450;strokeWidth=6;" parent="1" target="4v_UhoilL7VhXfVtBuKw-123" edge="1">
          <mxGeometry relative="1" as="geometry">
            <mxPoint x="545" y="1480" as="sourcePoint" />
          </mxGeometry>
        </mxCell>
        <mxCell id="4v_UhoilL7VhXfVtBuKw-128" value="&lt;b&gt;playbackSequence&lt;/b&gt;, &lt;b&gt;playbackPolicy&lt;/b&gt;" style="edgeLabel;html=1;align=center;verticalAlign=middle;resizable=0;points=[];fontSize=17;fontFamily=Helvetica;fontColor=default;" parent="4v_UhoilL7VhXfVtBuKw-127" vertex="1" connectable="0">
          <mxGeometry x="0.2635" y="3" relative="1" as="geometry">
            <mxPoint x="-3" as="offset" />
          </mxGeometry>
        </mxCell>
        <mxCell id="4v_UhoilL7VhXfVtBuKw-92" value="&lt;h1 style=&quot;font-size: 19px;&quot;&gt;&lt;span style=&quot;background-color: initial; font-size: 19px;&quot;&gt;&lt;font style=&quot;font-size: 19px;&quot;&gt;PPP_Deploy.cpp&lt;/font&gt;&lt;/span&gt;&lt;/h1&gt;&lt;h1 style=&quot;font-size: 19px;&quot;&gt;&lt;ul style=&quot;font-size: 19px;&quot;&gt;&lt;li style=&quot;font-size: 19px;&quot;&gt;&lt;span style=&quot;font-weight: 400; font-size: 19px;&quot;&gt;Extract Notes&amp;nbsp;&lt;/span&gt;&lt;/li&gt;&lt;/ul&gt;&lt;ul style=&quot;font-size: 19px;&quot;&gt;&lt;li style=&quot;font-size: 19px;&quot;&gt;&lt;span style=&quot;font-weight: 400; font-size: 19px;&quot;&gt;If Ready, Update playbackSequence and/or playbackPolicy&lt;/span&gt;&lt;/li&gt;&lt;/ul&gt;&lt;/h1&gt;" style="text;html=1;strokeColor=none;fillColor=none;spacing=5;spacingTop=-20;whiteSpace=wrap;overflow=hidden;rounded=0;fontSize=19;" parent="1" vertex="1">
          <mxGeometry x="355" y="1340" width="380" height="150" as="geometry" />
        </mxCell>
        <mxCell id="4v_UhoilL7VhXfVtBuKw-98" style="edgeStyle=orthogonalEdgeStyle;rounded=0;orthogonalLoop=1;jettySize=auto;html=1;entryX=0.504;entryY=0.02;entryDx=0;entryDy=0;entryPerimeter=0;fontFamily=Helvetica;fontSize=16;fontColor=default;exitX=0.5;exitY=1;exitDx=0;exitDy=0;strokeWidth=5;strokeColor=#b85450;fillColor=#f8cecc;" parent="1" source="4v_UhoilL7VhXfVtBuKw-86" target="4v_UhoilL7VhXfVtBuKw-101" edge="1">
          <mxGeometry relative="1" as="geometry">
            <mxPoint x="532" y="1146" as="sourcePoint" />
          </mxGeometry>
        </mxCell>
        <mxCell id="4v_UhoilL7VhXfVtBuKw-99" style="edgeStyle=orthogonalEdgeStyle;rounded=0;orthogonalLoop=1;jettySize=auto;html=1;exitX=0.5;exitY=1;exitDx=0;exitDy=0;entryX=0.5;entryY=0;entryDx=0;entryDy=0;fontFamily=Helvetica;fontSize=16;fontColor=default;strokeWidth=5;strokeColor=#b85450;fillColor=#f8cecc;" parent="1" source="4v_UhoilL7VhXfVtBuKw-101" target="4v_UhoilL7VhXfVtBuKw-91" edge="1">
          <mxGeometry relative="1" as="geometry">
            <mxPoint x="533" y="1306" as="targetPoint" />
          </mxGeometry>
        </mxCell>
        <mxCell id="4v_UhoilL7VhXfVtBuKw-100" value="Trigger" style="edgeLabel;html=1;align=center;verticalAlign=middle;resizable=0;points=[];fontSize=16;fontFamily=Helvetica;fontColor=default;" parent="4v_UhoilL7VhXfVtBuKw-99" vertex="1" connectable="0">
          <mxGeometry x="-0.025" relative="1" as="geometry">
            <mxPoint y="-4" as="offset" />
          </mxGeometry>
        </mxCell>
        <mxCell id="4v_UhoilL7VhXfVtBuKw-101" value="model_output" style="ellipse;whiteSpace=wrap;html=1;labelBackgroundColor=default;fontFamily=Helvetica;fontSize=16;fillColor=#f8cecc;strokeWidth=5;strokeColor=#b85450;" parent="1" vertex="1">
          <mxGeometry x="472.5" y="1196" width="120" height="50" as="geometry" />
        </mxCell>
        <mxCell id="4v_UhoilL7VhXfVtBuKw-114" style="edgeStyle=orthogonalEdgeStyle;rounded=0;orthogonalLoop=1;jettySize=auto;html=1;exitX=0.5;exitY=0;exitDx=0;exitDy=0;entryX=1;entryY=0.214;entryDx=0;entryDy=0;entryPerimeter=0;fontFamily=Helvetica;fontSize=16;fontColor=default;" parent="1" source="4v_UhoilL7VhXfVtBuKw-109" target="4v_UhoilL7VhXfVtBuKw-85" edge="1">
          <mxGeometry relative="1" as="geometry" />
        </mxCell>
        <mxCell id="4v_UhoilL7VhXfVtBuKw-109" value="MDLdata" style="ellipse;whiteSpace=wrap;html=1;labelBackgroundColor=default;fontFamily=Helvetica;fontSize=16;fillColor=#dae8fc;strokeColor=#6c8ebf;" parent="1" vertex="1">
          <mxGeometry x="786" y="1046" width="120" height="50" as="geometry" />
        </mxCell>
        <mxCell id="4v_UhoilL7VhXfVtBuKw-112" style="edgeStyle=orthogonalEdgeStyle;rounded=0;orthogonalLoop=1;jettySize=auto;html=1;exitX=0.5;exitY=0;exitDx=0;exitDy=0;entryX=1;entryY=0.25;entryDx=0;entryDy=0;fontFamily=Helvetica;fontSize=16;fontColor=default;" parent="1" source="4v_UhoilL7VhXfVtBuKw-110" target="4v_UhoilL7VhXfVtBuKw-91" edge="1">
          <mxGeometry relative="1" as="geometry" />
        </mxCell>
        <mxCell id="4v_UhoilL7VhXfVtBuKw-110" value="PPPdata" style="ellipse;whiteSpace=wrap;html=1;labelBackgroundColor=default;fontFamily=Helvetica;fontSize=16;fontColor=default;fillColor=none;gradientColor=none;" parent="1" vertex="1">
          <mxGeometry x="786" y="1371" width="120" height="50" as="geometry" />
        </mxCell>
        <mxCell id="4v_UhoilL7VhXfVtBuKw-129" style="edgeStyle=orthogonalEdgeStyle;rounded=0;orthogonalLoop=1;jettySize=auto;html=1;fontFamily=Helvetica;fontSize=16;fontColor=default;" parent="1" source="4v_UhoilL7VhXfVtBuKw-123" edge="1">
          <mxGeometry relative="1" as="geometry">
            <mxPoint x="545" y="1676" as="targetPoint" />
          </mxGeometry>
        </mxCell>
        <mxCell id="4v_UhoilL7VhXfVtBuKw-130" value="&amp;nbsp;DAW &lt;br style=&quot;font-size: 17px;&quot;&gt;and &lt;br style=&quot;font-size: 17px;&quot;&gt;GUI (if enabled in Configs_GUI.h)" style="edgeLabel;html=1;align=center;verticalAlign=middle;resizable=0;points=[];fontSize=17;fontFamily=Helvetica;fontColor=default;fontStyle=1" parent="4v_UhoilL7VhXfVtBuKw-129" vertex="1" connectable="0">
          <mxGeometry x="-0.2032" y="-2" relative="1" as="geometry">
            <mxPoint x="2" y="50" as="offset" />
          </mxGeometry>
        </mxCell>
        <mxCell id="4v_UhoilL7VhXfVtBuKw-123" value="NMFx Wrapper" style="shape=process;whiteSpace=wrap;html=1;backgroundOutline=1;fontSize=17;fontStyle=2" parent="1" vertex="1">
          <mxGeometry x="460" y="1576" width="170" height="50" as="geometry" />
        </mxCell>
        <mxCell id="4v_UhoilL7VhXfVtBuKw-131" value="" style="shape=image;verticalLabelPosition=bottom;labelBackgroundColor=default;verticalAlign=top;aspect=fixed;imageAspect=0;image=data:image/png,iVBORw0KGgoAAAANSUhEUgAAAmYAAADMCAYAAADZNG8rAAAgAElEQVR4nOzdeVxU1f8/8NeMS6aASqJdXBNEJUw/QpjLLwfMoTLTD25lORh+TFMr9SsYLWplmQxiFuZSkGL2CXEIMz8pxpILhs1YJqmgmKIybinLuAJzfn/MADPcO8MdZgZQ38/H4z4eejj33Pc9M8y8uffccySMMQZCCCGEENLopI0dACGEEEIIMaDEjBBCCCGkiaDEjBBCCCGkiaDEjBBCCCGkiaDEjBBCCCGkiaDEjBBCCCGkiaDEjBBCCCGkiWje2AEQQgi5v0kkksYOgRCnqM9UsXTFjBBCCCGkiaDEjBBCCCGkiaDEjBBCCCGkiaDEjBBCCCGkiaDEjBBCCCGkiaDEjBBCCCGkiaDEjBBCCCGkiaDEjBBCCCGkiaDEjBBCCCGkiaCZ/wkhhNwVHnjgAfTu3buxwxB08eJFXLx40aysWbNmePTRR3l1//nnH5w/f15Uux06dICnp6ddseXl5eH27dui6j722GO8suLiYhQWFvLK+/btixYtWoiqa4uePXvCxcXFrjacoby8HMeOHXP+gRghhBDSiACI2nx9fRs7VIsWL17Mi9fDw0OwblxcnOhznjdvnt2x+fr6ij6eXq/n7b9lyxbBuoWFhaLr2rJlZmbafc7OcPbsWZvPpT7oViYhhBBCSBNBiRkhhNShQhMDb4kEEqtbP4TFfIttGi30jR0wIeSuRYkZIYQ4RC4SI17C2ABPdAnbiOM6Ss8IIbajxIwQQkSTQakuA2OMt1UWqaFSKsAB0CZORfCbqThPuRkhxEb0VCYhhDiAlPNH6IIvMainKx4ftxrahI/x2UtPYnlwh8YO7Z534cIFHD58uEGO1bZtWzzxxBN2tfHEE0/go48+4pW/8847vLL9+/fj7bfftut4L774IqRS8+swv/76K7Zv3y4qhuPHj4s+lp+fn+C5CSksLMS6detE1b19+zaysrJEx2EPqVSK4OBgNGvWrEGOx+O45xUIIeTeVK5WMi+AATKmVJdZr1x5jMXLOQaAcZHprKRhQryrwc6nMr/77ju7nwQUuw0aNEgwBlueyrS3H2zdcnNzecdavXq13e0KPZVpi+zsbNFPZV68eLHBXuMWLVqw69ev82KgpzIJIeRuJO2C/iMNc21pVYdwoqJ2hTvQav6HrTFh8DR5eMAzLAZbt2mgFbz9qYMmJggSiSdCEo5Dr9dCs+1LLAzyNN8/Ix+6uuLT5SNjawzCPEUeu0KDGG8JJJIgxGhKocvPQMLCEMO+3jHQ8M6PEGIPSswIIaSh6M8j4+3R8AwYhQkRidCa/EibGIEJYwPg/4q1Bwe0KMhLx/pX5AgY+yqis7Tm+4+QYfTbuy0kd3rojm9EmE9vjJgQgUSTg4s79hUc2b0Ss2UjMC06zbbzJoSIRokZIYQ4kv4cDu/OM/x7aE94Vo/kLYYmdgZGLEsDIEfkhhwUVRofHqgsgnpDJGQAtIlReG2t2uKVr4LoOXit8FlsUBehsvrBgxxsiJQD0CJr2Xy8m3qGN2WH/nwq3gyeikQtB1lkItRFt40PLpQgLy0WCq6uY+ciMWodCqeY7HtyAfxppDIhDkW/UoQQ4jB66H7/CZvStAA4yIf7olPVj0oPYUvsDgB+CFetx7LQ7jV/GUs5+IdFIebyXwiI2IGstXuQNzdQOOnhZkP1zYcI7dwSNbsHImzZerheeQ7jEnKRMGcdXnpqKYLdjEfQn0HqosVI0AJceBy+WRaKztUHd4PPyDexejtQGDAfWREx2PJ8IsJ9WvEPzdu36ZJKpejcubNdbVy7dg06XZ03h53KxcUF7du3t6uN2ssmWdOlSxdIJBKzshs3buCff/6xKwZneeihh9C6det6719eXo4LFy44MCL7UWJGCCGOoMtHxpZ4fDgtGlkAIIvAxxN9TJKvLgiJU2EQWqH7YE7gdkU79A+SwQs7UFBwEmcuV8CfE/iIHhmMwSZJWTVpd4xdOA/yhGlI06Zhl3o+go1PhOpPpmNdQi6ACVi68FmBxEoKl389gylyJbLS9iFp32lM9elTK0YvjBz1+F2RlAGGL2x712ycPXs2vvjiCwdFVD/Tp09HbGxsgx2vsLCQl5glJydj4sSJDRaDLb744gu7Yvvrr7/g5+fnwIjsR4kZIYSIloWIAFdE1FGLU8Qh9ZPp8HcxyWJcfBAc6uPU6KQ9+2OkF5BWUIQ/Tl+BHh0gxS2c3LcTaQDgFYj+PflXwgw7d0CPAZ5AmgZH8oqgQx+4OTVaQogQSswIIcQh/KBQRmHMwADIg33gYrFeKfIzMvHnoRS8UesBALs174ieQ72AggIUXL0OPQApKlB29bLh5wURCGhRV1oJaC8U4zpAiRkhjYASM0IIEU0GpXo7FvhbTrus0Wt3493JYViW5dB0jBByD7lLRgsQQshdTn8cG6YakzJOAWVyJvLKKs2WdSpXK+HlzBgUKhQJLCfF2zaGgnNmHIQQi+iKGSGEOJ0epVmJeDdNC2AUlNtXYYF/O8cfpuISTu0vAMDBy72N8S/v5nB19zD8fP8pFFUAQs8UEMcrKyvD9OnTeeVBQUGYPHkyr3z9+vW8sgsXLgi2ERsbC1dXV7MytVotuMTR+++/D09PT1Exv/rqq7wyd3d3wdg++eQT3LlzR1S7Qi5dulTvfe9l9OtJCCFOp8f14quG8WReMgT1d0JSBkB/6jB2FwCAJwb06GBMzFri4R7ehsXVC7KQefg/8HdGUkh4bt26ha+++opX3rJlS8HEzFICJtTGRx99xEvM/v77b8G6c+fOFZ2YCe0/fvx4LF++nFfetWtXnDt3TlS7RDy6lUkIIU4nRZt27obbgwUHcfjULX4V/XnsUe1GQV1N7c7AgfMCVyn0Z5C6fKXh6UtOjpAA9+pjuwWOxXwZB2AHIhZ8DY3g7P566DRrsXDlfgsrBxBCGgIlZoQQ4nRSuAU8hSkcACTj3Y/WYHd+qfFnd6DVpCDmlaeNqwLUQbsa415+Dxs12urZ/fXag9gY9SrGJeQC8EN43AzI3Eyn6gjAzJgIyAAgaz4CRkeZ7Q9dPjISojA64DVEz/8An2ed560cQAhpGJSYEUJIQ3AbhrnfLDEuuzQf8t5tjYuIPwDPgHGI2D0QyvWGZZmAPJwqEriqBgCyyVBgE6YGeKKZcRHyZp6DMDU6DQAHWVQslo7tXuvDXQoX/9n4NicOCg5AVrTZ/hLX3hgxLRpZkCNStQpvB3emLwdCGgn97hFCSINoCS74PWzPy0SyUmHy1KMckfHbodZ8iQWTQhDIAUAedh8+J3zVqts4fJKugTp1PSJlNa1wCiWS07Ow/eOR4AQ/2VuCC5yNrzVqpCYrDQla7RiKtmN5aB8rc7ARW7Vp04a3tWwpsHIDAJ1Ox9ssDa6/fv06r25FRYXg8aTShvuqb9asmWAMtVcTIJbR4H9CCKlDc/8FOMkWOKAlKVx8ZBi/QIbxCzYK/DwYy4sY+MOsazfDwX/MdPiPmV53Xd6u/hgz3h9jxi+AUAQ8zf2x4CSDI87+fuPh4WHTk4e1B/Nb07NnT17Z+PHjG31tz3//+99ITk7mlT/66KM4evRoI0R096ErZoQQQgghTQQlZoQQQgghTQQlZoQQQgghTQQlZoQQQgghTQQN/ieEEHLPuX79Ot5991272sjJyWnQGD788ENeWXZ2Nn766Sde+VtvvYU2bdqYlfXt29f2IEXEYEu7f/31l+A5v/DCC7wnM8+ePSu41JMtkpKS8Oeff9Z7/ytXrth1fGegxIwQQpo8F/gvyIRDHgy9T9y4cQMfffTRXRUDY4xXFhsbK5iYzZs3Dx07drQrPiHvvPOOXVNbHDt2TPCcc3Nz8eijj5qVHThwwO7ELCUlxa79myK6lUkIIYQQ0kRQYkYIIYQQ0kRQYkYIIYQQ0kTQGDNCCCF3tYceegiDBw9ukGP5+vo2yHGIuebNmzfYa9y8efMGXcaKd/xGOzIhhBDiAE899RSeeuqpxg6Dp0OHDjh//jyvfO3atXjzzTcdfjyVSoUXX3yRV/7HH3/YlVBaavf48ePo0qULr+7kyZPrfSxL3N3dkZ2d7fB2myJKzAghhBAnkEgkgguWN2vWzCnH0+v1KC8v55ULPe3piHZbtGjBO7/mzSmtsBeNMSOEkPuJNgVhEgkkEm+EpZxt7GgIIbVQYkbIPakU+RkpSFgYAolEUrN5hiFm6/+g0d5p7ADvbbp8ZKR8iYVBnib974mghV8iJSMfusaOjxDSZFFiRsg9Rq/dj5VhQ9F7xDhMi04z/6E2ERETRiHA0x9hCbmUIDhcKfJT3kaQa2+MGPcqorO0Jj/TIiv6VYwb0Rs+YatxkJJjQogAuhlMyL1EdxCxkycgIksLcAoo497AS2P9wRn/BNNrNUjd/BnmRCQicdqLAP6L1eF+cGnUoO8VpTieMA/B0xKgBQdZ5PuYO/E5jPbnDH8B67XQpG7GZ3MikJg4B4MKryD92ygEc/wxSETY1atXERcX19hhCDp48CCv7ObNm4Lx7tmzR3S7AwYMwJw5c3jlDz74oG0BihQXF8eb+f/3338XrLthwwa0b9/erKysrEwwXnd3d9ExfP/998jNzRVdv6Fcu3atYQ7ECCH3iJssL34CA8DAhbP4YyUW6pWwY/HhjAMYMIHF591s0CjvTZWsTB3LZAADOCZT5rAySzXPqVg4V3c9pylSMQXAAC+mUBU29NEFAaDNAV/HW7ZsEWw3NzeXV3f16tVOOYfx48eLjjc7O7vR+7wpvqZ0K5OQe4X+NPYl7TP8e+QoPNPHzUJFN/QZ/xKmcACwD0n7TkPfQCHes/RnkfZFArIAQL4U6+YHWrwKKe38LBYunQBAi6zYVBwspd4nhNSgxIyQe4X+Oq4WGMY0efXrDg9rdd16YdBILwBapP1yFBeF6ujykbE1BmGetR8eyEK+zkIyUf3EXxBiNBZGsFVoEOMt9FSgDpqYIEgkEnjHaFChy0dGwkIEWWlPr9VgW3Udw+YZFoOt2zTQWs139NDlZ2FrTBg8q/fth7CYb7FNo7U5UdWfTMe6hFwA/ohc+Dx8rH6ytoL3sKchBwBtGnapr4qMz3huYh4e0Guh2Wb+8IHofS0ev/79QwixQb2usxFCmqDLLD3S33AJXRbL1GWV9WznNivKiWMKzsoleku3Sqtvk8mYUm3hJl25mim9wPi30sqYWiljABinWMKWKfxMjlm7vdusKH2J8dah8MYpNrBjgn1geitXaPNjivgjNtxirGQl6VHG9mYwVVF53buU5bF0lYqpVCqWqi5iZlFWFrGcWIWV+KydG2Os7AiLN+s7041jMsVkY79ZupXp6P6pm8X32X222YtuZTa9rT4oMSPknmGaIHBMFqlieTYnZ5Ws7NiG6qSMU8SytLyqBOw2K1KrmLLqS5+bzVTnbpvv7qDEDACDLJJtqJ20VMVoOp4rMpGpi6riKGF5abE18Yer2DmzBm6zc6rZxj6Ss8gNOayo6udleSxNWZUQjWJK9TWRfWYSt5eSqUXkZZaZJkV+TKHcWfMaVhYxtUpp5dwYY5WnmSq8KimrdX6VRUy9IdIkmRVKzJzRP3Vr7C/PprLZixKzprfVByVmhNxTal3t4BRMmZwpPkEz+WK3eFWmLIcpZZyhTu3kwFGJmVDSVx3jMRYv5xjAMVlUWk3iUFPBJHHzZ5Hpl2t+Uj3w3o+Fq04LJH3XmFo5yhCDPJ7lieo2xyVmpvEJX5UyPTf+OVTmxTO5hZ8ZmCZe/MTMOf1TN7Ffcj4+Pkyr1fK20aNHi25jyZIlgm005LZs2TLRX+Jr165lnTp14m2XL1/m1b1586bg8crL+W/K69evC9YVimv06NGCdT09PXl1H3jgAcF4hbaRI0cKtjtkyBDRr+f69et5+6ekpAjW3b59u12v26FDhygxI4TUx21WpE5kkcbkqXqTRbJ41Q6Tq0t8NV/s1q6ImF6Zq/VUp6MSM4WKFdl6bDOFTKXwYgCYl1LNDF9LJk+tWkkqavpA7BOrjkrMTOKzeiva5Ja12XmYxGEtabL4VKaz+qduYr/kfH19BfefMGGC6DZWrFjhkJjtERcXJ/pLfMWKFYJ1L1686JTYhI5l6SpYly5dbE5UTLcnnnhCsF2ZTCa6jaSkJN7+mZmZgnWzs7Pt6puzZ882SGJGg/8Juee0BOc/BcszjyMvXYX4SLmhOCsa08aNQoBnDwQt3CQw+/8tnNy3E2kA4CVDUP92FtqXwi3gKeNTnYfwS+5lZ52IgDu4cPoktAAgfxrDvFtZqNcJg9/4DCqVCiuCPI3ziNU8teo1sj96Wvj0kz7cAwM4ADiFvHMNOAWvaXyjnkR/F0sfz+4ICJGDA4C0g8i9WGHc/xwO784z7G/l/EQdvyn2DyH3CUrMCLlnucEnOBThy3eBsRLkpaciWakABy2yohUI8ByNtzPOmzxhV4Gyq8Yka2hPeFqbfrr6qc4C7D91CRVOPQ9TJjE+3A6uFj/BWoLzfxahoaEYUz3Ba81TqwURAWhhulSV6dZ2BKK1AFCMC8U3nX5G1arj88LQnh2tzP4thVvfAIwEAOThVNEtG/ev6/hNtH8IuU9QYkbIfcENPsFjMH7BRpwr2odYhR+ANCx7eRlSz1ddObuFkstljRnk/e1GCS7faOwgCCGNjZZkIuQ+I+WGYt7nq3Bh9whEa1djzmeheGp5MNzQCm09XBs7vAbgBYUqExtDuzqovdboNXAwOGRBW3ASZy5XwJ+r46NVr4Vm+wGcqQSadR9sWLapdVt4tHZQSHZxdP84zuXLl7FkyRJe+V9//cUra926NSIiInjlgwcPFmxbqF1byGQyyGQyUXUff/xxLF682K7jCfnrr7+QnJzMK581axY6duwoqg1LcQn1z7Rp00TH9sUXX+DyZfNhD+fOnRNs9/Tp07wyX19fTJgwgVf+6KOPio7BFsnJybz3VWlpqVOOVRslZoTcEyqgTZkDz3HrAC4K6ceXItjNygVxt8cQMsUf0dEaaC8U4zoANzSHq7txWtr9p1BUAVjML0pPIGd3AQAOXu5tGvDSu0mMF4pRpkf1OqB1kraBuxcHFFTdfu3qoA9AKVy6eKMfAC3UyDlWjFCug9U99Cd/wttjpyEN/ohM34kxNsWnR+kxNXYDADzg7trcMefntP5xnMuXL+P9998XVbdNmzY2JVti27VGbGIWGBiIwMBAu49X29GjRwXPY8KECaITM6E+S05OxsSJE3nlhYWF6NpVXAKfnJwsmJiJ7XdfX1+7k2dbJCcnCya5DYFuZRJyT5CiTTt3w4Bwi7PJm7qJ4gvFtcpMZqQvyELm4do/r6JHqfpnbNICwDBMGtaj5oOkTTs8zAHAWRw544wFf1vi4R7exoHvO7Hv5C0L9a4gY2FAzSoCACDtgB4DPAEABTv24LCl1QvqQeo9AjPC/QBoEL38B+RbbdrkIQtOjpAA4+LO0h4YNmmYiPiuQr0rjf8AhOn+uw/jlK2n58T+IYSIR4kZIfcEKdxkCiyVcwA0iP5wEzRWvlj153/DDuMVL/lwX3SqasV7CCbJOQA7EPvZNhwXakOnxvoPN0ALgAt/ASGmT0a6eKJ3Pw5AAXbnnAD/wv8daPf8iB0FjjjPfdi0Ya/g0kv683uweZMGgD/GDexuvPLjjsCJL0EGAFlKLFirtrA8UTE0Kxdh5UEblh6SdoV8Vrih7bSV+GhDrsWlj/Tn/4fl7yYD4CCbPxaB1Vc2TRLjrAR8tuWoQBt66DSb8GG0BoAfwmeMgHf1p7jJ/mkrsTz1jED8d3D+QIbxalttTuwfQoh4dk3qQQhpQsxn7YcsksWnqs0nYK01ezx/IldrM/9XsrK8nSYz/wsty2QyFxbkLFJ1rGaS1LI8lh5vbeZ5MfOYGeOwNvN/enz1HG782fFNJkjl7VvJyvLSWXyk3Nh/S1i6lTnf+Ewn9+WYLDKepeeZ9E/tvhecq8zKzP+1VzUQnADY9Pz4M/db739n949lsGMuLEubh4dHg8awePFih/RFbbbMY2bLzP+2sNRuYaHQkl7CfH197epfW1YUcMQ8ZrbMjWdtqw9KzAi5p1SysjwVf3JZoU0WxVR5Autd2rNWJmNmKwPwN47J5s83tl3fxMwYY33XyhSxFqXlvqlLCctTRVmNyxBbHMuxlNQ4e61Mi/3fEP0jzBFfgLU3SsxqNkrMDBslZoSQRlTC8tJTWbKy9hcsx2SR65mq9pU0IWV5LD1ZaZ6giV3iiXd1BoxTKFlyeh4rq15SyZ7EzKCySM1SLR3H6p63WZF6B79/hK4y1kNlkZql1u47+DGFcjNT1RkbY4YEO5MXn7hzY4arc6nrzRL0uvvflHP7pzZnJGbNmjVjffr04W1ff/213THs27ePHT161Gy7dOmS6PPdvHmzYGxCW8eOHRs0Mevbty8vhs6dO4tOzH766SfB82jZsiVv//79+/P68ejRo+zxxx8XnZjNnTuXd6xu3bqJTsxOnDghGK+rqyslZoQQQu5PzkjMLG2WlmSypQ17l0OytCSTvTE4IjGzJQahxMxSDEKbLUsyWUrMbLmyJZSY5ebmOvX9Vh80+J8QQgghpImgxIwQQgghpImgxIwQQgghpIloahM7E0IIIU6zd+9eNG8u7qtPJpPhscce45Vv3rwZzZo1q3P/Bx98ENOnT+eVP/bYY3jjjTdExfD7779j7969ouo6gti4AMDFxYVX5u3tLbqNHj16CJaHhoby+n3AgAGi4+rcuTPGjRvHK9+7dy9+++03s7ILFy4ItvHMM8+gV69eZmVlZWX4+uuvRcdRb/UamUYIIYQ4CBpw8L8tW1xcnGC8Hh4eova3dcoOIU1huoymTGjw//DhwwXrDh48WPRrn5SUxNv/7NmzNPifEEIIIeR+QokZIYQQQkgTQYkZIYQQQkgTQYkZIYQQQkgTQU9lEkIIuSv06NEDmzdv5pW/++67yMzMNCtr164dduzYwav72WefISkpiVe+f/9+XtkjjzwiGMePP/6IioqKOuPV6XQYOnQorzw0NBT/93//xysXqltUVCTY9nPPPYcWLVqYlT322GM2nYcQoRgsSUlJQadOnUTXry03NxczZszglX/++ecYOHCgWVlGRgbee+89Xt28vDxe2e+//y54Hrm5ufWOtSFRYkYIIeSu0Lp1awwZMoRX3qFDB15ZixYtBOtu3bpVsG2hupYEBgaKqnfp0iVkZ2fzyi1N/SBU15La0z4AgKenp03nYW8Md+7csetYZWVlgscrLS3llf3zzz+iYystLbXpPJoaupVJCCGEENJEUGJGCCGEENJEUGJGiMPooIkJgkQisbCFYGHCVmzTaKFv7FDJXaoYmpjnIJH0Q1hCLnSNHQ4hxOFojBkhDSYN0dPSAACcIg6pn0xHINeykWMi4p1FSlgQxiUWwEupxvEF/o7/ANWmIMxzHBIhg1K9HQv8ay15U1GAzLWGAe2JSQfxzlQ/+NxHf16XlJRg06ZNvPIzZ840aBzJycm4detWnfXu3LmDl19+mVcudoyaNePHj0erVq3Myjp16iTYP0J8fHwwaNAgUXW7deuGJ598klfeunVrXtmZM2ewZ88eUe2ePHlSVD0A6N69u2BfOkv37t0b7Fi1UWJGiDN4KaE+vgD+pr9hunxk7PwBG9+IQGLiHAzafQjxGSsR3set0cIkdxnpwxg4UQ4sK4JiUiA876OkDADOnz8PhULR2GFg9uzZuHz5cp31PDw8cOnSJafEsHr1anTs2NGsLDk5GRMnThS1/6xZs0QnZoGBgaITvoMHDzrlNbIlhrvdffZrTUgjcvFB8PgF2Jh/BPEKP0CbgGmvxUOjoxubRCRpZwR/vAuMHcHGcD/wl5AmhNztKDEjpKG5+GHqx+8jnAOQpcSCtWoaK0QIIQQAJWaENApp52excOkEAFpkxabiYKmlq2alyM9IQkxYP5OHCPohLCYJGfn8uX549Fpotn2JhUGeNft7hiFm6/+g0QrMQaRNQZhEAokkCDEaC+lihQYx3hJIJN4ISzlr8oOzSAnzhkQigXeMBhVCxw5aiIRtGmirTtdSfCkmdSzR5SNjawzCPGsesPAMi8HWbRb2rY7beG56LTQp/P1TzB7OqIA2Zabx590wLrEAAFAQEYAWEqE+MD2vbwVet28FHv6o6TeJ5zgkAgCyEBHgatxvJlK0Fby63jEaWJziVKBvDK97FvItXaGtV/8QQhyOEUIcpIyplTIGgMFLydTl1mtX5sUzOcAAfxaZfpn/86J9LFbhZ2hPcPNjivgjrMxS+0VpLErGWd6fC2fxx0rMdypSMQXAABlTqi20XK5mSi8wwIspVIUmPyhkKoUXA8C8IuPYGouxc0wWlcaKSo6weCvnx4Wr2LlKwTNjZcc2MAVnqV/AOMUGdqys1s7VccvYMlWylb7xY+Gq08ywdzkrUs2w8hrU7gMR/c573Wr6TXibwVRF5by6Xko147/FbrOinDirfSP4ute7fxzD8rnXf/Pw8BA81rx58wTr28LDw8OuGBzRDxcvXuTtv2XLFtH7z5o1S3QM48ePF30OtsRgacvMzLSp3xrK2bNnbT6X+qDEjBCHsS0xq/ki5Jg8/pj5F12ZSdLCKZgyLa/6i7yySM1USgXjrH1JluUwZdUXqyySbVAXGetUsrK8nUxZ3fZspjp3u2Y/ByVm/OMyVlmUwzZEyo0/92cymRfv3FhZHkur49wqz6lYOGfoN1lkIlMXVcVfwvLSYo1JCcdkyhzzpLU6bqH4avdLFEsvqX3kupIia/1e+/xHMaX6Gn//OvvfWgzmCSuniGVpeVUJ2G1WpFZZft0d0j/154zETCKRsLZt2/K2Bx54wO4v0OLiYnbt2jWzbeHChQ2amLm5ufHOrXXr1oJ1Dxw4wIv3+vXromOwlJj5+vryYnjxxRd5x7p27Rrr06ePXYnZ999/LxvtuwgAACAASURBVPh6fv/997y6e/fuFaybk5PDq3vs2DHBuikpKby6lJgRctexMTGrPMbi5ZzAl+xtdk4125CcWLq6wa4xtXKUhS/ZmywvfoLxy3UJSy+6zd/dJIHgItNZ9REclZgJffHXOq6lK4Ws8jRThfvxY6v9M8ErapWsTB3LZAADJrD4vJsCcYNBFsvUta+osbquYtaVmFWykvQo4+tW9/kLtmFPYmbaN0JXDGsdn9d/dvdP/TkjMWuIL1BTixcvbtDEzJYtNzfXrhgsJWZdunSxKYmzJzGzdCUuKSmJVzczM1OwbnZ2Nq9ubm6u6HYbKjGjMWaENBZpG7R7mD8PEPSnsGtdCrTgIJs/AxMFp9NoB/9X5yOSA6BNwbpdp2rG/ZRmI/7dZAAc5FMmQSY0V5rLQLz0+vMAAK3qEE7UvR6zbUYGY3BnoeP2xMBAT8O/vV7AxCf5axxC2gl+Q/sKxqY/mY51CbkAJmDpwmfRmfcJJoXLv57BFDkHYB+S9p0WGA/lBcXr4+Hvwv/4k/bsj5FeAFCMC8U3RZxorf27yBGnUkG15hUMFux3XwSN6g0AKDhyBnVPuCBeTd+Mwvw3xqCPwPnBJQCvvjcVHABtwnfYdVJoLi7n9Q8hpG6UmBHSxOhPZiMpTQugN0YF+VqeEsHtMYRM8QegRdovR3Gxav8Lp/GHFgCGYdKwHhZ+yZuj0+DpSFWpoFoR1IDzYbVCWw9Xwz+H9oSn4EyKzeHazl2g/BZO7tuJNADwCkT/nq0E6gCQdkCPAZ4AtDiSV9SAT7xK4eIjQ2hoKELH+INr0E9X076RIah/Owv1pHALeApTOAA4hF9yHZkaEkIcgSaYJaSx6K+j+MINfnHZVRie/euNnp4Wkg8AQDv0HRQAQAPsP4WiCoBrbrq/O9q5Wv4Vl3L+GBPqb88ZNLAKlF01JhIFEQhoEVHnHtoLxbgOoMGn8NXlIyNNjUPbliEiMbcBDmjSNxYTXiO3Xhg00gtILMD+U5dQga70RUBIE0K/j4Q0Fv11XC3QAuDg5d7GeGVLjxslV8FP18jd4Q60GcswecQSZDXocW+h5HJZgx6xMbi4uGD48OGi6t6+fRs///yz6LZ//PHH+oYFAMjPz+eV3blzx+52H3nkEfj6+trVhouL+KmIR40axSvz9PQUPI+hQ4dCpzO/Jj1w4EDbA7TDoUOHeEtD5eY2xB9DzkOJGSGNRH/qMHYXAIAnBvToYEzMpGjd1h0CI8+IKYUKRRtDwTV2HLXo87/BVGNSximU+CzseTwd7GNyO1oHTcxoBEQ4Om0zuUV8D+vWrZvoROfSpUvo1KmT6LZHjx5d37AsKikpsbvdsWPHIjY21kER1U2of5OTkwXPo7CwEF27dm2IsCxavnw5li9f3qgxOBqNMSOkUZiMCeLkCAmoGVMldXWHFwAgD6eKrC2UXIxjOWrDP73c4Sqtvf9VFJc5elR/Y2oOV3cPwz+Nt26blivIiv/C8JrKYrF99XyMN0vKnMmGvik9gZzdBTC/UksIaSrod5KQRqA//z8sNz45KZs/FoFuNb+KUu8hmCTnAORhR+ZRy4PXS//Erk0aABzkk4bAuyoxe7gHBnCA5acSAUCP0oy34SmRQOIdA03VF3mbdniYA4CzOHLmmv0n6lAt8XAPb8NVsoIsZB4ubuyAarmJ4guGmLxGPYn+Qk9FOk0reA97GnKgjr7Ro1T9MzbV+XAIIaSx0O8kIQ1Mr92PVW8vRoIWgCwCMTMDzK+qSHtg2KRhMCzXtA5bjgstvVQMzfpYRGsBcKGYEdKz5pfZbQimGZd7StuUhCyhpZf0Z/Hz5u3QAuDGDUSvqkENLp7o3Y8DUIDdOSfAP/IdaPf8iB0F9Tx5u0jhFjgW82UcgB2IWPC1hQXg9dBp1mLhyv11L+vkUA+i3cOGpyELdh/GKYFj67UHoNqR55Sj1yT0OxD72TYcF+obnRrrP9xgeN3DX0CIt7WHSwghjYESM0IaiF6rwbatMXjFfxjmJ+YCXDji10wTmC+qFXwmLkK8wg/QJmBa8OuI2Z1fc+VMl4/dMW9idMQOAH5QLJ0JudmcYa3gM3EBlDIOyFqCEZPfw8bq9Q310OVnICHqVYxLyAW42Yh7Y1jNU4vVSSGgjV6Oj1KOmx03I+G9RhjYbsIlADNjIiADgKz5CBgdZXJuVTFGYXTAa4ie/wE+zzrvwHUdTRKvHT9iDy/hdUdAiNxwRS9tJT6K3VWzLqVx3clX/OVYlqW1fIjqK5Z52KE6YFtiKfXBxFXLoOAAbeJUBM9ehd3V66nqocvfhZjZ0xCRpQW4cCyNeEpgHjhCSGOjwf+EOEMd0zlwijikfjIdgUKTkAKAix+mfrIWJZiJ+YmJiJAngt+aHxTx/8XqcD/+OCaXQMz/diOuTg7DsqxoTA2IxlReEOGIz/gYoUJJ3aZ9iMhKQ/S4vog23wmy+fOh+G8sEq3kF84jhYv/bHyb0xJvjZ2DREvnBjkiVavwdnBnB/716Y7AiS9BFq1BVtYSjPBcAsALClUmNoZ2BSCFm2w2vonSYMSyNCRGPI3EWi8ap1iG9Q9n4tXoNLMpTqq5DcTE+aMQHbEDWcvk8FwGADOgKopDKFfXx7UULn1exCepOmDsHCQmzoc8cT6/GheO+IyVCBecuJiIkZ2dDXd387n24uLiEBcXZ1e7x48f55Vt27YNffr0satdIS+++CIWL17MKxc6VlmZ8BO/MpkMLVq0MCsLCQnBqlWreHV//PFH3Llj/sfMH3/8gRdeeIFXV6FQ8J60HDJkiGD/zJ07Fzt37jQre/zxx7Fp0yZe3cjISOTlmV+xvn37Nq9eVbuLFi0yKysvLxes62iUmBHSYOSIjJ+OIf2HYrQ/V2fCIOWGYt7G/RgV9hN+2LjUZD4sPyiU7yLs+WcQ7GP5y1XKjcTH6RqM2/4jtny6GNFVV2o4BZSfvYLnn34SPoKzwwdiwfYsDNwSjw+nRVdfHat+ylCmx5bc/zZSYgYALcEFzsbXmicQuj8TKW9EmMQiR2T865j4jBz+lpLeejMmheoO+HTBwpr+NKvSGcEfJyPvqVqvmSwS8XMn4pnR/0KbrFIsjk6DtuAgDp+6BX8f09uJ7eA//0uoPT7FgqnR9bgyaeibjfkjEbbzB2w07Zu6XncimpeXFzp27GhW9tBDD9ndbu/evXllzZs35yUTjnDp0iXBcluOderUKV5Zv379BOs+8sgjvLKrV68K1j179qxgu0L94+rKfxq5devWgnUvX74s+vy0Wi202kb6kKvXQk6EEEKIg0DkuoO+vr6i27x48aLT1p68ePEi73hCa2XauglZsWKFU85h1qxZdr0WljZLa2UKyc7OtrvdCRMm8OoOHz5csO7gwYOd9p6w5TWtC/3ZRAghhBDSRFBiRgghhBDSRNAYM0IIIXc1tVrNGw908+ZNwdnq//rrL8GxUUJ1jxw5gtOnT/PK09LS0LZtW1FtCPn7778Flw3avn07r+zWrVuC7e7atYs3mN4Wp0+fFjyeLZ566ik8+OCDZmUBAQGCdTMzM3nLNwkN5rdEq9UKxstxHK9/OI4TrOvr64sOHTqIOp7Qe6rB1OsGKCGEEOIgsHOMmdA4Iw8PD8G68+bNEz0WaNasWaJjW7x4sejzjYuLE93uvHnzBNvw8PBo8PFStbfCwkLR5+zr6+uUGJKSknjHyszMFKybnZ0tOl6h91R9tvqgW5mEEEIIIU0EJWaEEEIIIU0EJWaEEEIIIU0EJWaEEEIIIU0EPZVJCCHkrrZkyRLMmTPHrKz2UkFVZs+ejbFjx/LKhw8fzis7ceKEYBupqalo3769WVlGRoZgG0ICAwPxyy+/iIrBkm3btjlliSChGGQyGd5//31eee3VD2zl6+uLNWvW8MrffPNN/PHHH/Vud8CAAYL9u3r1arz11lui2pg0aRLvPXXp0iVMmDCh3nGJRYkZIYSQu5qvr6/oul5eXvDy8uKV79mzR3QbgwcP5iUlGRkZotvw8/PDk08+Kfp4lmJoKB06dLA7XiFubm6C7bZr186udtu1ayfY7ltvvYUDBw6IamP27Nm8Ns6dO2dXXGLRrUxCCCGEkCaCEjNC7gpnkRLmDYlEAu8YDSoaOxzSyOj9QMi9ihIzYpcKTQy8JRJI6rN5x0Bzz32jFEMT8xwkkn4IS8iFru4d7jr6/ASESCSQhCQgXy9ihwoNYrxteW94IyzlrNPPgxBCmiIaY0buEWeREhaEcYkF8FKqcXyBf+O8uSsKkLl2BwAgMekg3pnqB5976s+fYvz+QwrS4I/Ihc/fY+dG7geFhYW4cOECrzwwMFB0G0eOHIGrq6tZ2fnz50Xvf/HiRRw8eFBUDC1bthSsK6R9+/bo1asXr/zIkSO4efOmqDaEYnB3d7c7hn79+sHFxcWsrFu3boLtlpaWim7X3d1dVFwA0LdvX1RWVpqV3bx5E0eOHOHVPXnyJC+2S5cuiT6WXeq1XgAhdSlXM6WXYUkKL6WalTv9gIVMpfBqwONZUHmOpUfJGeDHFPFHWJnDGm4i51eSziI5MHBRLL2kUtw+Df5euB80kfeDg8DOJZlsYcuSTJY4azkkIStWrBC9//jx4wXbsGU5JL1ez9t/y5YtdscgJDs72ynt2iI3N9cpr2V93ldV6IoZIY4k7Yzgj3eBfdzYgTiDHqXqn7FJC3CRTyHAjS6XEUKIo9EnKyFEpKtQ70qDFv6YEvIY3Bo7HEIIuQdRYkaagApoU2bW+UBAzYMGM5GirTDfT9IN4xILAAAFEQFoYXUQeSnyM5IQE9bPZMB5P4TFJCEjnz+2wUAHTUxQzVNwunxkJCxEkEQCiSQIMZqqYf4inpbTa6HZ9q3A8b/FNo0WYsbTCzerwbatMQjzNBlI7xmGmK1ZyNfVt1WT9vN/wPJoDSCfhWmyDna3V7c70Ga8b+xjTwTFHBR4mOIOzqfMgWdVHwo9cFGf/tamIMzktdVrNdhW/Xob41n4pdn+/DoSeIbFIEXwGFXvJ0+EJByHXq+FZtuXWBjkabbv1ox8+x4g0eUjo9Z7wjMsBlu3aaC19paw2GfWfkcIIQ7h4Nu1hBjYNK6onBWpZhjuyXspmdpC5XK1knkBDJjBVEXl5vsJbl5MoSo0a6OyaB+LVfhZ2cfS2LAyplbKGADGKZawZWZtyJhSXbWH9bE/lUVpLErG1eP41tqtZGXHNjAFZ2WsAxfO4o+VWH0VrLvJ8uInMIBj8vhjTOToMgO7xphdY2rlKOM5zGaqc7fNf1w15g1gXLiKnasVWL37u0jFFAADhrDI9bFW+lbOotILWYnV/vdj4arTtfqs5v3kFRnH1lh8T3JMFpXGingdXtcYs7rfE5xiAztWJvBKlh1h8fX6Hak/y8cy32iMmfWNxpjZrimOMaPEjDhHgyRmpkQMhjb9wuEUTJmWV/3lUlmkZiqlgnEivkgBMMgi2QZ1kUCCYiWOshymrEoSau1fWZTDNkTKje2PYkr1NfHtmiYnijiWU1SVvNxmRepEFll9zFimFvoiFqPyGIuXcwyYwOLzbtq2r72D/036zTz5qiNps6e/qxMzY3IUmcjUlvp1iIzJODBOEcvS8qqS30pWlreTKavfb7Xjs/5+Mo9P6P1Yxx8A51QsnBOKvYTlpVUlmhyTKXNqJViXWXqkf/XvSGyOLe/R+mvIxOzEiRMsMzOTt9li3759vP3DwsJ48bZt21bwWG+++abg+clkMt721ltvCbYhtOXm5grGa29idvHiRcHjCSWoHh4egufx999/89otLi62+9zspdPpBI83fPhwSszIPabJJWa32TnVbEPiZfHqkbUvepMvUqEkoM44KllJepTx+Bb2N0kk+Ocgpl3hJyUr8+KZHGCAP4tMv2whbuuq25DHszxbczu7n8qsZGXqWCYzSwhMy4QSFzv72yQxE7oSZ358K31fnSDV7nsR76fK00wV7mehfSvvd5P96o69VqJdneRbeK9UJ+hgXGQ6s+carKmGTMycZfHixYJJipC4uDjR5zxv3jy7Y7M3MbOkS5cuott1VmLlLBMmTGi0xIzGmJH7g/4Udq1LgRYcZPNnYGIfoaHr7eD/6nxEcgC0KVi365Tw+KORwRjcuaXNIUi7yBGnUkG15hUM5gT2d/FF0KjeAICCI2dwWVSrelwvvgqtteN6P4OPU1VQqd7GkLbl9RjDdgVZ8V84ZO6ymvF/lraq8YNmZwAX/1cQoxwFYAciFnwNTekZpH2RgCwAXPj7+GBsd96AWcf0txdGjnocnXnnLIVLr/4I5Iy15o/DkwJPqUo5XwztxwHQQHXojPCYQ0vvJ2l3jF04D3IA0KZhl/qqYIS16U+mY11CLoAJWLrwWeHY//UMpsg5APuQtO90zXviejEuWH0z9cQzH38FlUqFuCFtcd3+oYuEkFooMSP3Bf3JbCSlaQH0xqggX7hYquj2GEKm+APQIu2Xo7josAikcPGRITQ0FKFj/ME57DevOTr5BRq/vLdj4/rd/IH+Ug7+Y0IRGhqKMf6c7b/0pX9i1yYNwMkREiB+MkfHagf/mYuglHFAVgJiX5+POQm5ADcbcR88J5x8OKW/TbRuC4/WAOCFoT07Ck9oLG2Ddg+3rvchpD37Y6QXABThj9NXRCTVt3By306kAYBXIPr3bGWh4Q7oMcATgBZH8opqHjDo5IvhckMiuWnjJuzmDfRvCc7/Wef2KyH3Ofq1IvcFfdlVGJ7Z7I2enha+rAAA7dB3UIDhn/tPocgZS0bp8pGRUvuJNwkkElcERGTZ3JzUZzxWxYeDQy4SI55Gb9dmhifvUlLsesrTwGTusin2z13mpVSj3DCEwsK2FqGchekVXQIwMyYCMuTi28RUaOGH8LgIjK3r6qWD+7tBNe+InkO9AGhRcPW6iNeyAmVXjdf+CiIQ0MLSlUkPjIjWAAC0F4pxvWp3qQ8mrloGBQdoE+dD3rut8cneFKTU9SQnIcQhaIJZch/Q40bJVdxo7DBwB9qMZZg8Ygkcmw64oU/4Gmj6/xs/bfkc06LToE2MwITEqp/LEbnhQ8ydEmj7FQ79Wfy8eTu0GAXlxIGNPHdZ1S04JbLStAA3Gi891dXKX5fO6u97mRQufcLwtcYPoT9twafTopGlTURE9ZuJgyxyOWLmToK/0O1hJysvL8eZM2ca/LhilJSUiK7r6uqKbt268coLCwsdGVK9CMXQunVreHh48Mo7d+4MqdT8N/DGjRu4cuWKqGPdvn1bcHksW3To0AFt2rQRVffChQu4ffu2qLo3bjTeNwYlZuQ+IEXrtu6o/w0lx9Dnf4OpxiSBUyjxWdjzeDrYx+S2qg6amNH1vIrTEpz/cwj3fw7hy0uRn5GJ3OJLyPl8MaKz0hA9NQ2bMjYgY/UU9HERn51Vj1eSz8Pz/2pXj7gc6Q7Op8bh3TTjICjtBny4fiwCFwQK3pp2bn/fBRQqFG0MBVePXaWcP8aE+2NM+DLo8vcgLfcKinO+xLToNGRFKxCwKQvxGSsRLjhW03lOnDiBHj16NOgxnUGhUEChUPDKJRJJI0RjTqh/x48fj+TkZF75r7/+yitLTk7GxIkTRR3r0KFDGDJkiO1BmkhKShJ9vNDQUBw4cMCu4zUEupVJ7gtSV3d4AQDycKrolpWaxTiWozb808sdrg77DakaQA9AFovtq+djvFmS4Ehu8Akeg9DQ6VieeRpF6UsgA6BNjMKbW/JtuLVZNV6Jg3zSEHg38qeF/vyPWDRnNbTwgyJyNmTQIiviA6zVFAvUbsj+dqKKSzi1vwAABy/3NiI+sJvD1d14ZcMht+KrxuqNR/jyXagsSkOUjAO0CZj25lbk061NQhyOEjPSBEjRpp274S/7gpM4c9nxA7uk3kMwSc4ByMOOzKOWZ1OvGuju8GTkJoovGBIIr1FPor8NV62sqtAgxtvaKgctwQWH43WFLeOUjPSnsS9pH4BhmDSsR+N+WOjPIHXRYiRoAcjn4Z1lS82f0uStbOCk/m5g+lOHsbsAADwxoEcHEa9BSzzcw9v4u5SFzMNCSaslNatbSMJSBJ/0lXJBeP315w3/KbiKMkrMCHG4u/PTitxjpHDp4o1+AAA1co4JfJnoz2OPardxAH99DtEDwyYNA6BFVuw6bDkutKxMMTTrYxGtBcCFYkZITwf+gjyIdg8bbgUW7D6MUwJfaHrtAah25NnWbPPuGDjOH0ABdu/4DeeFvij111F8wdbxEnrofv8Jm9K04MJfQIi3tQcmnO0OzqcqDU9hYhSUH4fCR9oO/3oxHOEcgCwlFqxV10q2ndTfzrA7AwfO3+GX688gdflKw1U/0U/ESuEWOBbzZRwsJ60AoIdOsxYLV+43GdDfGr0GDjYkdZZiQgXKisVN20EIqR9KzEiTUHNFS4PoD2ORUv2Yvh66/AwkRIVjxLI0Ky2YfBHv+BF7tLW/VFrBZ+IixCv8DLdhgl9HzG6TdQh1+dgd8yZGR+wA4AfF0pmQ12OuMsvcERAiN3zppa3ER7G7aqa10GuhSYnBK/5yLMuyNomUcLuBE18y3KpMmIOXoxLM1jLUaw9iY9SbmJamBTAKM4O8RA4svYqDWzYjC/6Y8tKTAtNRNJyaW5gcZMpFmOlveJ2lnZ/DB3GzwQne0nRWfzuBdjXGvfweNpqtu3kQG6NexbiEXAB+CI+bAZnYJ2Krn14FkDUfAaOjzNqGLh8ZCVEYHfAaoud/gM+zzht/ZpLUGWNKMF2rU6+FZuNizJiWDICDbOaT6E2jlAlxOPq1Ik2D1AcTP47AprT5yMpahnG9l9WqIMf8yMn4b/S3FiZTNSYo0RpkZS3BCM8lALygUGViY2hXQxUXP0z9ZC1KMBPzExMRIU9EBK8dPyji/4vV4X4OHo8khZtsNr6J0mDEsjQkRjyNxFoH5xTLsP7hTLwanVY9PsjSzBGm7br4z8a36aWGpw+jpyEreppAPT8o4j+pTmrqVD13WZRD5y4riAhAC36n83gp1Ti+wB/NTW9hclPx3qsBJq9LS3QeOwdL5SmYlma4OhS0/U34u0jhvP52AtlkKLAJUwOiMZX3Qw6yqFgsFZhA1zLjeyKnJd4aOweJWdEW2pYjUrUKbwd3rmnbJRDzv92Iq5PDsCwrGtOyoiH0buIUy7BmZkCDj9nr0qULVq1a1cBHFScpKQlbtmwRVfenn37Cl19+6eSIrHv66acxffp0UXULCwsRGhoqqm63bt2gUql45V27dhUd2wcffIBHH33UrOzAgQOIiYkR3cZdzWHrFxBiql7L8FSysrx0Fl+9Hp9huR2F8juWnldisrSQ0JJMjPHWMBRYxNyghOWlf1ezjmGt4wgzWUJHoWJFFs+hrqWhBI4ti2TxqWpWVGmyjBBvTcq61wKtLFKz1GRlrYWr5SwyXmXlvITUxOGQZXdM3gtiN8M5lrBj8eFW1i81xFqzvJDQgt/17O/qJZksvYdMz8tKHYuvW633U2URU6euN3nvgnEKJUtOz7OwWLiItWGZtffEdpP1MwV3ZOrUzbV+Rzgmi1zPVBZjqj+x7wtakql+hJZkmjVrluj9G3oRc6G1Sy3FkJSUJPp4gwcPdsgyS7Zs9UGJGSHEnD0LlhORxCb69wdKzCgxo8SsBo0xI4SYqBn0D/nTGNaog/4JIeT+Q2PMCCEmpHDxn4dMNq+xAyGEkPsSJWaEEELuapWVlbhzR2h6D8eTSqV44IEH7Gqja9euGDlypKi6Pj4+guVZWVm8c+7UqRP69+8vqt2zZ88iLY3/pPvIkSN5KxB06tRJMN49e/aIXuLIFmq1mnduf/75p+j9r169CrVazSsvLuZPxdSmTRvRqw/cunULe/fuFR1HfVFiRggh5K6mUqnw4osvNsixBg0ahOzsbLvaeP755/H888/b1cbEiRNx+fJlszJLSycJ2b59O7Zv384r1+v58949+eSTgklc165dce7cOZERixcRIeLRbSv+/PNPhISEiKrbvXt3wXMTcu7cOZueLq0vSswIIYTc1RhjggmFMzTUccj9ixIzQghpcC7wX5AJtqCx4yCENDX0VCYhhBBCSBNBiRkhhBBCSBNBtzIJIYTcc1xdXbFy5Uq72ti8eTMyMzMdFFHdpk3jL4All8sxadIkXvnKlStx69Yts7JHHnnEKXGp1WqsWbOGVx4VFcV7QtWWGLy8vPDVV1/ZFdvjjz/OK+vdu7dgux9//DFOnTplVlZUVCTY7zNnzhRsuyFQYkbIfe868n/ciB+O3wDQEl1HKjCpv8g1NQlpolq1aiX4hWuLQ4cONWhilpCQwCtr27atYGL20ksvNURIAIC///5bMLYlS5bY9ZRix44d7X6NhHAcJ9hufHw8LzErLi4WPLeQkBBKzAghjeTOCexc9i4isq8B7V+DanKbxo6IEELuW5SYkbtXxSUc3vUTfjl2C50GjcSoYT3hIql7N2KK4c6xvUjKvgYAaD/pWQzjWjRyTIQQcv9yWGJWeXQTXlv+MwxzAPshbMV8BHdo5qjmbXQDRze9h+U/XzH81ycMK94JRodGiqZhVOJKRiz+b2Ou4b8PPIWFa6bAt+olqDyKTa8tx8+3AeAB+IR9gHeCH26kWB3x+txAfuI8DJv2LXQAgMcxd+c2xIZwoNzMFiU49GMKDNNl+mHSqH/BgzqQEEIajcMSM3bzIjISE1EAAJiBMZ8wRzVdD3rcvHgIiYlZhv8qxuCTRoymYTCUFxcgMTHR8F+vfnjD9CVgN3ExIxGJBQDgBcWY9xohxiqOeH3+Qe4vOcakDAB+w/YjRVCGcHQZ2BY3jiH9O+PSJe1HYFRgJyuJLcONo9uw5n8nYXhrPYCez4Yh1Net7uNU/o1dn6twpMLw3+b9xuH1kEfQzKzKLnyuOoIKAOCCMG2yP9rXJ0m8cRQpa/6HUwwAOiPoPxPh3876H4ns1mWc/R+EQwAAIABJREFU+CMH+3J+w59/nMY/l48h53o3DO7mgYd7P4bHBg7E4CcGomc74auJtfe/VlGKf0pb4yF3D/QIDMSQwOEYPrAzWtV5PuUoPqVGRloa9uScwrWbN3GzRRu4ez6KwCeD8cyIAeBaWXmYnt3ClRN/4Nd9v+Lgn0dw5totFP9zA24PueOhHgPx+JAhCB7en9eGWd+L1bwfxr0egkca6+/ve1BAQACvzBEzzfv5+aF169ZmZZcuXUJhYaGo/du3by8YW8uWLXllV69e5Y3jsqRNmzbo27cvrzwvLw9lZWWi2rCFTqeru1JTwBykXK1kXgADwIAZTFVU7qim66GMqZUyYyxgUKhYUSNG0zDKWZFqRs05eymZ2vQlKFczpVfV6+PFFKrCRovUMa/PLXZGNYf1qmrDZSxb9UeJE2K9l+nZ9QMfMz9jH3KR6cxqD+rPMNUrfWpeN4C1n7mdXdSLOJTZ+w/MS6lmtT8hzD5D6v16Xmd58ZOZi9jPovKL7A+Vkk19nDM7L8HNawyLjN/LCm9WmvRJCSvY+amI/Tn2+Ix1LLvolsVQ9GUn2E7lSzXvaYHN5fHX2Jrs87y+Y6yClRXsYp9OHWJy7uLbMP/8FrnV/oyxg9hj+vr6Cu7/3Xff8ep6eHjYHdesWbN47Q4aNEiw7uLFi50Sg7OsXr1asI/1ejG/0JZt2bJF9Ov5xBNPCLYhk8lEt+GsLSkpiRfX2bNnbW6nPmgeM3KXegDd/v0Rdu3dAZUqFbv2rcOs/iKu3BATV6H53/9guPntjykhj8FyDzKUn/gZicnHzUqvffNf/HjihuND06XincVbkV/ObNqNadPx6Sc/oO6/ixkqrh1CwvSnMWBcBDb8pq278YJtiJ72DEZM/Qx7tLeBinPIWBYO+dNzReyvxW/rZkD+0mc4cK2SH43uT3z9+kQ8HbEZJ6y0ovttDV6T/wcfpp8zubp1G9qMFXhJPg5zN2TXee6GNl5F9IErsK13CSENge76kLuXxA2PDHsWzpm55z5Qehg/frXP8G9OjpAAdyuVr+LXb77Gttrf+rofsDJ5Dl54ZzBaC+5Xf7ptSixLGY4vJ3mJ+6Bil5C56hOsOSEiLdMdwpqp4/HGD6dNSvtg1NwZeDHEH709WkMCgN24iLzff8G2xE1I1mgB6HAiKRZLh/w/bP33RaTtPmgcvgHAawwiF0xByIDuaNtCAuAOik/sxTexn1YnbrrML7D8+1FIDvdF9U1RdhWatYvw5obfjQUu8Bo1G2+/Pgb9O7QE2HVo1d9jRcSnyNIB0P2EDyYsgvdvcZji1RqouIDDaenIKNDVnEfkGwgPGYDubVsCYCgvPoG938Thg6rETbcDy5b/gPHJr8CnhQRSzyCsUKnATxmr3MSpbSsQkVgVowwLV09Cf/oGIcThGubXit1C8cVruIkH0b5TOxHjLISaKMbFazfBJPVvg9dWC1d4dHBpuOy0qh8YIHmwPTq1a1WPgeoMFbqruFx2x442atPjVvEVXLupRwvXDujgYmOPOOS8GltVH1TW8xwqoLtyBWXlqF8fmrHlNa46rhQPtu+AdtbGH5nRo1T9MzZpAcAFfrNH4wk3y/uyol/wdZwxiXOZhJWf9sKW/yzFAeiQu2ITdr4SgFBPRz/NeRwblnyJF4KWIqRjXf1ZidKcDXh3eXbdzbIipC163SQpc0GvSYvx2QfheMrHnfd5EPD/nsXk8OmYtnYJXo84iqHxXyFW8S+4NQeWbtkKn0URUN4Kw3exU9C/fa0+8H8Cw5/0RbsRL+LT4zoAp7Et6Vf8PdUXPlLAcCUyFUvf32a80uWCXlPj8P3nL+NRF5PBWwFDIRvcCy8Nm40fdACufY03P3oOI+JD4dm8O55emohMn6WYpbyNmd8tg6L/Q7XOIwBPDB+Kvu1ewOhPDwAAdNt2Yt/fk+Hj0wpSzh9jQv0t9636c4xPqUrKemHS2k/xrrwr/WVPiBM48VbmHRTnZyBh0SsI6uWB9pwnPLn2eNAtAGPmxuC7vaegq+M6Ort1HprUz7FwYiDcHmwPztPYRq9ghC1ajx2HL4kfrFrxD47u+hKLwoLRq6otD1e08A7BazEp0Ghv8C/ra1MQJpFAInoLQozG9K91PW5pD2FHQgwWhgXDW/qgoR88PcG1fxBuAf/G3JjvsPfv0jpuKTBUFOcjI3EZ3hjzONq7djC24YFewTPxUWIW/tZZ/lvXYpvXjmLXukUIC+qDB9t3gqcnBw/X9vAOnoWYFA20t/QW9nXUedXlNrTpSxHsWtW/3RC8eCcKjXFVaGLgXd33M5GitWnoMoByFOdnIvGj1zEmoIuxD6rO4QUs/DxV+H3B238mgr3bw9WDq+nDoDC8ZXV/HTQxQdXvHe8YDSpunYcmZSXm8l7j2q+H0HE7of2DfRA882MkZhbU+bsFdgkHtu+E4TpOAF4Y0dfKFa/rOPbDZnxtmFED7SdMxMSpCrw2toeh4Foq1v6Qh/I6Dlkvx9fjvdX7ca2u8ynPw9ZP1uBAnQ0y3Dj0X7y/sqZm+0krkfLVPDwtkJRVkbh4I+T/VmOHJhmfvzIQ7ZtLAEjQ3CMQ4Z9vx4G4MH5SZtgTzT3/Hya9PKCmqOAqyqp/tUqgSd5UcyWy/RR88tFk86QMANAMLv0V+Fg5CS7GkmvJ3yP9b8Nz8GjeCQHhK7D7wKd4hZeUGTXvipGTnkOP6oLLuFpW1+8MQ/mprZg7+T3s1gFAVwQtWo2V0x6jqWkIcRIn/cFzDjnfvI3PP1hluPRuSqfBD6s0+GHVZ5DNVWL1h+Phy/sQqoQufxuWzpyL5Zln+c0XZCLxw0wkfvgFJik/xcq5w8E1t/IpcXkv1kxfig+rbxWYtpWGtRFpWLv+ZXz27aeYE/CQY672sH+gXheFWRFf4jcLd1Z0mlSs0qRi1fvPYFHqerw3oovAC1KOa4f/i7env4W1vHEsOhRkrsO7mevwyYZ38ekzxSKDu4PLv36B6W+txgbebR8dCjLXICJzE9ZPWo5v18xAQHuT18dh51UHVoK/vnkPr8z63HicrghaFI/N7z1l/bUWq+I89ny6EP+xMKZHp0lCtCYJ0W8/jYUbV+Ldf/cx/yKyur8OBVmJWJ6ViOVvj8Tcr2Lx4UQ/q19klZeyEf/a15jJe4+avB5T4/D9qtHAtiUm/WLqBDLXvYPMdZug+ngtvnpr+P9v79zjoqrWPv6bUPGyVcb7mJiJeEhJDhIqhgp6RMwSNS+piOIlUDO1QsW8C1ZSHtEMLUnlaEJGeT0gipgpVIKSwlFELUFBREBkkPs87x/MZc/M3sMAg3DOu76fz/5j1qy99rPWXmvtZ6/9PM8SDX1BuYk4ekB5LVs3jBrQXlQ2yv8VYcExyl/OeM97BLqbtceYeR6QHg1GAbJxJjgSv87oh2EGVt3qRgEub9uOf02yx/uiNoSlyPhxBz469pfI/zwoC+f27tcocFJvBAfOgK3eHCSApD2sBwq0U7N2sDDYwc3Q3FwkQ9ltXDySqP4pWzAZ/xBdeeTQ742JeIuLwGE5APnPiLyUCc/efZRzVgu0t9D3kuNVAGbNW6A2TpRUcAlB8/2wL12O6tW8zdjpN9I0Y/D/AXK5HH5+fg1S9vr168FxXM0ZRXBycsLWrVv10lesWKGXNmDAAMyaNUsvPSAgAIWFhVpp5ubmguUK0b17dyOlrZbB09PTqLx3797F7t279dIXL16Ml156yagy7OzsjJbN5NTJZUAAca8ejqxc3iYvL0+a4mKt95+1dzjdKed7gSio/E44eVtzvHzW5OLlRwFBQRQU8AFNceB7QFmS6/o4eqTlSKLj9adzcA5uNNZBwIvKZiVF5/DcjHJjKcDLi7zEjiku2nW2fo8i76m8rnS9w2TkMG6G8twZNE73+oJeaJVUdP0bmibVkZNzoHGeXuTlOY4cOCM9pnS84rQPGTmMdRMoiyOb5VE6XnemqFcNXpmKJ5QSuoDnnWZJrutiKKtC21uozp7AFZl0dt1YHe81A/2UG0eB8bmkvnpFBkWv1O1fqnYQaAPY05zQP6jI6D7KkdXw4QL3Q0r2Ls46XnvW5DJuuMDYc6Ll0Q9I2L+qgnJOLCWpskynoN+pWLSxyulB5EJlXhCG7qDkMmWpxfEUYKsapzbkHXlP5HpUe69MjCYvL2fNmPUIpbRy4dIVOVG03EYlhxutC1hMvcT6RV40LZVq2tlm7c+GPVFNgSKdwjws1XWRLo2mPNVfd8PIQy2rDfmceGC4rKobFOomEyyrZkrpbthMTR+RfkjReZXi2ctvUbi3veYeuG6mswa8SuuD2Fyte/y3eWU25JGTk1Pv+gkhdK3JkycL5u3Ro4fReWuDkFdmbcqNi4sTrEd8fHy95HpeXpkNqJhxZD0tiKJSc6hEPZ+WU0FaDAV72fPyWdP0sDQqV2dJpVCPXrzJYD0dT8vTnsQrHlPyYT9yUT+4htLK2BzeQ0Hgocc5k89XMZSaW6LMV0UlWZcpfKW7lpLhFnqDqsgIdJUH3Yc3EVHx7xQ0ehKtCD3Lu66qDnmUdnw9ufIevnrhCoqTKHi0pVYdfEMv0r0iTWsoSu5TYri/VjkAjFLMOMeF9NXZVMpVuf8riikr8TCtdOVdE1MoNK1Eu+71rZchxawik2ID3+b1JWGlrLpKdVHMiul2mLdG0YCMHH2+orP8PqbbDlYetCL8OhUJnm9JLssOUMK9QvHzAQEFVaiPutPK8N8091dRTFkJe2iO1kuK8rD2puCzaVSgbBdFSQ6l6rQ73EIpTagza4W9GEfByUXizVV2lYKHSpV5rWh6+F3e/ZZTasgkzfX4SpsutVbMfOiHlDO0zlF1bRuaE35bP0yEIo8SAt3Uc47NyrOUc1m8X1QmB5O9+j8HWhGbK153k1BBOdEryUZ9Te25SrvOLhSUaOBeEBHRAzrhwwtZ4hFGd42MbqCtwFa3VZ7oufl0OWg8b260JNeVh+hCSiYVCYzF+mLsQ44pZpqDKWbiMMVMia5ixo3+J10uFH4bUxQl0o7xGuULtlsooVhBRFVUeGGDZhKTelPYbbF3+SJKCZmmnji46eF0T6H5T/uh14vGh/xBJULFlFyhYFfeCodRE10pZZ3dzHsI2pN3+C2NcqmmkuRFJeKrCPSEEoPcNdfuFUgJparcVVQY608ydR10FFhdeaLXkCO/Q9SkmHHTKCRF6CGgoJLkHeTKm5A9wtJ16lCfehGJKmZ6K1niSll1leqgmGmt8nBk7RtJ9wTLV1BF1jnaseUQ/ZpVrKmr0ecTKR6doVVqxQIk9Y6kB6J9VETxoErKi13De7CDwE2hHckFAu1fSMnBHrwyvSk8Q7/HKO6F03RV3zWkTOleW+ant8KieBBJ3uoVKN0XJB51UMwis0q0lRrdFW1SUEnKHhqvqov1cjqRVW6gX+iOKXcKTpaL1N0UVFJRyn4txVo6/SDdVq/8VVJe9Ic8JV/gJUgPnX5jZCwxRdEfFDqH90JscG4lIsqgSC8rwQcN5ziftken66wA1w9jH3JMMdMcTDET579dMWsg4397zP/wHTi0E7ZmkHADMc//XdiqElIu4Pf0ZwCe4I8zp6GKlCRb4AkPKzGTZA79pnpjvqz6l/zEJVx7LGIAL5uOpTNs0VLov5avwN3TWfM7JQf5Bu3oqyBPDcfqhZ8hTmX7tH4bPptqDX3LEDO04Qx51LWDrfMwjTHuXxnIUl/8Cf44fx5qq7KhS7BymtA1AMAcMrcFWOVtY0hwLWSL3sWM/kL2CRK0fHU0PN2UDYtMpOQU6rjR16deIshTEOE3FxM2RSm900xsUwYAIBQnncaeFJVx1gi85+uGnoLlS9BM5ool/jMwWNZaWdfanA9IOg/Hwg8naoy1j8bjukAMKwCAbCJmjX1ZwBbPDB0Gu2EKL/g399bb8BhgIdD+7WD7D3doevOfyHxUppOnHJkJMTghBwAZRs9yRb8WYoZoGTiz97ByPErh9MEUDOugPaYlMmd4vjtU+Sseu/bGIZOEi6s9zdBl1AJsmKPs17qOABXpOBL4ebWXIqwxfa0vxhjc55NQ9kwOTTzxtuBaNVTY+irIUw9iycT3NHacjmtw+IvJsGquam9CWbEcBepzOLRpAHmqY6TNwbz9vFAXhzdiuujcahj55b1Y5j4VSw7+B6WmE5PBYChpIOP/QRg2oJOBB7cErfsOxCgpkFIAAOlIupMPDKhC1i2VKiJF94ex+PrzK+KXUdxHumpmkF/HzYwSvNlZQNkYbgfrtmI6aDO0tTAUv4kPoTL7HIKWrFVOthys53yC3QaMrEHPkH39dyT+cRNpOXKgLBe3bz1EiaoKeal4LHjeU15bAL3ecISN2AMUACRdYe/qAOy7KZ5HUxqGD+yNtmJ/v9AGFt1qmLTrWi8hcn9ByBId5wxuGDxnvm5iI+NK5GdlQO1O0msoBtm0acDzW6CH/esYim8RAwAFSbj+ZwnGdKhlHzVvjXY8m+6uA/ugu0izmEm7oDeAi2Ii0QMkHPtZqfw6452RfUSUfcKzKz8i+LAyShc3FvPH99f33JR0xpApk+D0WTwSAMgP78f3H7rjIwdxZ4Ja0aw3Jvn7weOHeTgm5zsCtMajc99iy+Fq1wtu/Ef4eEr1i4u4n6EZpLKe6Aoo65+N7PwyQPiVrR4IKGXWCxC67yO4ycz5lUPnl/rAClDGQlMq0paGlMtSFObytqqRcWhlYIjoK2X2mBMabESoCxncvriIrE8JqCzCowf3cPO3Y9i9ZpfSoesq9i8KxLDB32BuX1NHsDMNVVVVuHPnTs0ZDaBr2G4q2rVrh06d9HcHFtrKqH379ujYsaNeupmZvhIvl8uRk5Ojl25paam3fVJhYSEeP9afpXv37q2XxnGcYFtWVuqPtuLi4nq3u1Qq1ZNDTAYhCgoKBOthbm6ul1ZeXo7MTH0nw65du9bLuaI+NF4Ymnad0KMDwHtdBKrykJmo8qwqQFLYFiSZ4lrmzWGS53vpDRxevRKblJ6inKs/9m6dhr6CQdUIldnx2LtxFfz2XDQiErkOWm0BmJk3r8Gbygwt2xjbicxg3tysjt6n9ayXEFHbsVk3Tf4dlvq9DodDPrAzxmPOKMrwKPNPzU+zFmhuVptWqP35L7S1gFFbxRvdR3vhNcuOtfKs46NIj8O3KmXLzR3OfUSUEsrFr0d+1HgvvmoFi8IbSBIakFUvYpgth4QUOYCLCD2SiLkDR6GDSXRqCZr3nYrAoBjELoyAXLkjwJive+O7tV8rV/Pc4O8/Gf2MCG5o1sUSr0GlCN3Bhf9kw39IexPGDSpDdmwQZk5Yq1xRBzjX1TiwewUm9m2vN+YkrTjI1PIUIbewFICBcUxy5N7L0/zu3QVSwc5AqMw+i80z56nnK3AiHsaCNAPXqZtSEhlkln1hN2Qkxg7uCXenldX9Qh6FfefuYnZf2zr3x4YkPz8fffr0aWwxBPH09MSuXbv00iUS/Rszd+5cbNu2zahyo6KiMHXqVL30lJQU9O/fXyvt0KFDWLx4sV5ehUKhJ8eRI0eMbsuoqKh6t3tcXBxcXFzqLMOIESOMVuLS09Nha2urlx4RESHYls+DxlPMnj7G/XydtGZd0Pt1K0DZoNJxS7HKpYeRkyaHVzs0YHXoIS58+hEWqd48rX3w1e73MbyzyDUpE8c/no+FqhUszhFTFo7HoN4v4eUubdQTtOLuMbzvFwa9DV3MOsLytV7AnWrlrKqsAlUwdMOqUFr8HDZorW+9DMG5wHMCcPTgecgByI+vwYKA3jgWMMZEK2fm6GL5MgDl5ulV5aioIhivtdf+fEXREzysj8h61EepLsXti9HVq3fohQmew9BHZHAp/jyNnbt4wVoTNuPtQXrqswBy3Ny1H6fedcas3vpvp3WDQ78ZS+EfFoOPEwogP7YZ7xZ2xpXLBQA42KxcAd/BHYxqE8mLdnBzkyEiJhtANmL2nsLVd/4Gh9am6F9CStlmHD3kh1Ey4bYw69EXQ2XAxWwAuIuLKfdRPrITRINeFN3FlQuqFzYpnJ36ooteJiGlrB6hazTSot3gSVjo8SUSjmUCKMDFhFt45GsLWY3nMhgMY2kgTeZ3/HLtMSbKuolMloRnt64gVr1aZg0Hqw4AytD5pS5QvT+iy3B4fjhJ9LPN80OOWwc3YP5Gpf0TNxbrQtZgel/xN9uqG//GP9WfFd0QeOYw/IfoPzwqk+5ilVABknbo3lcGoHoS/uvfl3HTbzDsRO2BcnA1ziTriwapd73EUD04RlRgIjcFb+9OAlCAy5+txsf2Vtgjal9XG5qhQ/eesASqP0f+lYTkO88wpJ+xnzN1z4/H7zeLMcROrB+U4/7VS1CrN1IHvPpyq/pUoH4o/sLFCFX0/pF4Z8RLIi89hbj643c4Wlc9X34KIT9ew9sfOZpsmyZJu0HwDViMf40KwE38hQvnlcqJ9QIELR1u/OrcC1Zw95kAaUxI9WJ9QjD8v3LGDx8ORrsay1CgrLQSLVq2EJjXaq+UAQDa/g3DPGyxdXcKgALEh8fi+nw7EUWxCvkJ0crdGgDADu5/76GzWtVQSpmKZmjRsimujzEY/zs0kPH/Vez9IhxJT4UNnUl+BaGffK3cPBmA7XAMsm4NQAqHN95SOwUU7NuJHTGZBmxGypCXnW989P86UYncCzvgu2iPMpCoPeYEfwq/kYYmuSoUZt5Gquqn1WiMeU3ojb4KTx8/gvAW0Bawc3HRvInG78RnEeki0dXLkB3zDT41yr6sPpiiXgLwHxzNXsbELdsR6Kqydr+KffP9EJyYj9rZlJfh8a0EnD4Vh6RMufJcCdo4jIGPrUqRisG2naeRUSlcMuX+gl1fROKPXJUBve75P+PL3TEGzr+AkC9+Un/ulU5zgb3wd6fnAKH8+hmExlQ/1bm33OBkKbwuQ/m/4uC2aOWvXhi3NhSRkZE1HD/gwFoP5aevAiRsOYRzj0w5Ms3QwfVdBC3kbxtkjMG/Ls3R3X0+NoxW9a9MnPFbiKVf/4ZckftYTRlyE0PhO/J97Est1O6LVIjUf/nBQ62UcbCe9k+cqkkpAwBJNwydMgFqt52EPQgKFzaqp6eJ+PaLcM0qtNObcNcKDFwFeep3WOIxW6OUWc9E0KlvalbKKm7j9HcXkSm62wcAECozf0d0jGYrK7tXe8JYC10Gg2Ek9fId5SEax0wrBplQHLNe5BGayotjlkZh03kBPrnRtCwsXit2F5GCKgrSKHbvcnKRedLu6090XPRrCGCqLTllRfqIuJ/rBrs1HL6BL19pQqAmyKVgaIoqKrkXReu0YobphHzQi2Om3xaKkoeU/MPqWsYxsyKvyAwD8mu7ymtCG5ioXjXeHwWVpB3Ujt9l40cnHmgHtxQPi1BOWSeW82LM8WOIGROHrIRyU49TwHhlvCgrD1oZeVMZbkX4fK2QGrrn68lgTBvU8d5lRZKXWjZ+XKwiSg4epy5DOx4ZH50AwgIhMsTQDp2hM67rFC5DN4eCKu5F0BzlNbjxeyilpC7x7SqpKHmXJsyGer4KoMOxyZTBn2sqiigrLZ5+CJpLjuqwHN60I/5Btfx6wZBBnOsmikq7T1lZWeJHbpGm/jqxG8E5k09IHN1Vx7MrodzUUxQ0zY4nr24AYf3QHODG0rqoVMNyZD2moooy9XjhHOfQ5gMxlPxnHvGbVlGSR3cTDtAyF/64dqegxCdG9Iya0Zq7DBxi4TIiIiJIIpE8l2PIkCGCMtQmXMaiRYuMbofly5cb3Y7ff/+9YBkpKSl6eXft2iWYV6HQH1Ni5TbUERcXVy8ZRowYYXSbpaSkCJYRERGhl/d5hctoQKMsOdIj/DA2YiOsXMbg9Z5toMhLxdFTSTyDcQ7WcwKwdcYrms9Uza0x/dNPEZ84G7vT5YD8DLZ7ncF2zgHjJvRHxxcAlGTg0pHzqg+eOD+lF6wvbcDIDqZdjdDejgQAKvE0aT9WzTsoeo75P1YiZFY/mA8YjcVOn8MvoQCQR2DhRDPkrZ2J4a90RauSHKRdPYvDO77BqTsGvhe1tsPcoFWIVW1crNcWxci4dBrnDZVhUiSmqZcR12nZdzK2hPyJe6pViJsh+OBjO/QNmSHibMHnIRKOHNdslSQ/ih1n0rHIzgHN0BpW0zcg7MpN5WbOmTi/fTactsvgMM4V/Tu+gJKM33DkPG+jpZxKtJN1RPXaR2tYTV+LvfHXlJ9bq88fsn2V+Pmwx5zgjZg7QGxLoedA+W38HKH8qCp9EzNcLYXNDJ6l4vheVcgS4RAZYki6j4D3e87Yt/kigL9wbG8Urr3zionstwBAgmY934R/iD8U/y7F0PeNM/jXxwyc3TzsPiYH3t2M43fkqJ6v1mB6xJqaT89+iMfPFADKkPHTGkyc943WtlzyuHUY+7d1hsvwikTWgUnVK+LNX8GMrQH45T++1V6c8ovYs9AVexbK4DDOGd0eXsSpJL61piVc12+Bv1t3jU1nxlEs5XuBAoA8CpvGRmGTQUF88MONGUjbsr+6Dpf3Y+3s/VgLAKgeE68gTWfeBgAONsuXwktoi6pGYNKkSXj69OlzuZaQN6QYbdu2FTTy79u3rylFUjNo0CCEhYXppb/44ot6aaNGjRLMO3v2bL20Ll26COZdtmwZ8vO1jcUdHR2xZMkSo+S9ffs2Nm3S76FbtmzBt99+a5QMQuTn58PLy8uovE+eCG9l+OWXX+LkyZNaacXFxUaVWW/qpM4JoPWW2msZfbV7gc7WMbqHJbksC6fUIqG38UoqunNKe8VB7OCcyTeshu1u6rhiJr7NlPihWQmopPz4rforWVqHPc1Zu4zGqn8Lvd2X0qPLoeTrKLCFFO/gHJfSgb0rNPI2yIqZqepl5P1RPKHruz21VqdcA3+hfIXQ/eFf4yFFL+WvLkjJOeQ68XuaouRPOq21w4BY/3KnlZE39IJpKoqUDIfLAAAFK0lEQVRu0ckAY84fTcvCrwsE43yeK2YKKk78nJyU6VLfEzrbbKkvxNuqCQRMopDU2gRgVVBZ8g4aqj6ft02TSVbMjMP4ciqp6E60zkqUoYMjq/Eb6Kc01Qq94a3fDB5697uSilIO1jjOARsaH3i2hu3JanP4UOS9+5R40J/GWQnsMCF4GJq764ax8oqtmDUFhFbMahvkVqjOtVkxMwVCMjRUgNn4+Hij770pAsw2xlEXGsbGzOxFDJq3E5eSf0KQrxustP60hqtPIA7EnsVPQVMFNjAHADNwvd/Ax5E/I/lkKAJ8dMsAYOUGn4ADiE06hp2zBhjh/v28MYPU6QMcvxaH0DXT4aBlHy6Dw5Q1CD13BDsXDkNng+WYo/Nr3tgZcx6xoevg5WKt9S/nMA0rdpzEr6eDMOPvhksyDaaqlxFI2sN2XiDCljkpEzIR9/EKbDqVUYNdYReMWLQKvo4yABysxq/GlrdttIykJS17wW31ISQkn8LutXPgYqVjwG/lBt+gw7hwLQKfTNIPLyDhrDFudRh+SfwJO1ZM02kH1X35CYm3jmLbNMMbmDc8hbgWfVIZ+sIW08bZC8fdq7iFk3uPqSPYSL1nYvwrtYnzJkGLAW/i/emq0XoTR8LOIr2C6iF7Q2IGrvcYfHQwDnfiIwXvIwCAc8D4JVtwIDYJiZHrMEEg7IVJZOk/QznO12CKg66fozVcfYMQnnAaEf6jTBvfr3lXOMwMxNHEZMRHhmCd0HyrksEnEAfOxeHEtmkiczeDwagvEiJq8FmTSp8gp6AEBDO0knaCRcva64OaMgA0b4vOnbhGjPVRe/jyS1pJ0dXCUOR8Q1RC/vgxiioIkLSCtKsF6vQ1x0SYrl6mp1q2KnCdO4Cr6UFGpXiSU4CS6orUvl0r5XicW1TtnNHU+uezBAQOdsOaFDkg80N0yicYY+LP/v8zVMrxODcf+Y9yUVTZCh26d4K0jnNWvaBSPHmYjaysfFS07YyuXbo817FVPXae4ulzageh+F1C9OvXD6mpqTVnbAQ2bNiAjRs3aqV17twZjx49MroMoXZYvny50XHMTIGQDJMnT8aRI0f00i0tLXH//n2j8gqRkJCAoUOH1pyxluWeP38erq6uRuVtaOqiYj2XZ4ekpQW6ySwavYzGxHTy8wM/Nj5N+b5Uy2Z0Zlh0k6HONWnGoZOsqdwVPoRn184jXLmNlGyWO5yYUiaO8j52kvVsXDkkLWEhexkWspcb6fLV47pbY7cDg/H/kCbzUs9gMBqCp7iRnI2BXl4YiLZwmPh3NKILAoNRL6qqqlBQUFBzxkagtFQ/yIlCoai3vKWlpY1e54qKCkEZFAr98CpieYUoKiqqOVMDl9sUeS6fMhkMBoPBEMPYT5kMxn8bdVGxnrPhBIPBYDAYDAZDDKaYMRgMBoPBYDQRmGLGYDAYDAaD0URgihmDwWAwGAxGE4EpZgwGg8FgMBhNBKaYMRgMBoPBYDQRmGLGYDAYDAaD0URgihmDwWAwGAxGE4EpZgwGg8FgMBhNBKaYMRgMBoPBYDQRmGLGYDAYDAaD0URgm5gzGAwGo1FhWzYzGBrYihmDwWAwGAxGE4EpZgwGg8FgMBhNBKaYMRgMBoPBYDQRmGLGYDAYDAaD0URgihmDwWAwGAxGE4EpZgwGg8FgMBhNBKaYMRgMBoPBYDQRmGLGYDAYDAaD0URgihmDwWAwGAxGE4EpZgwGg8FgMBhNBKaYMRgMBoPBYDQRmGLGYDAYDAaD0UT4P9Ni4zQs56VfAAAAAElFTkSuQmCC;" parent="1" vertex="1">
          <mxGeometry x="915" y="1620" width="444" height="147.52" as="geometry" />
        </mxCell>
        <mxCell id="4v_UhoilL7VhXfVtBuKw-135" value="Trigger&amp;nbsp; with &lt;br&gt;&lt;b&gt;GuiParams&lt;/b&gt;" style="edgeLabel;html=1;align=center;verticalAlign=middle;resizable=0;points=[];fontSize=16;" parent="1" vertex="1" connectable="0">
          <mxGeometry x="285.21739130434776" y="1076" as="geometry" />
        </mxCell>
        <mxCell id="4v_UhoilL7VhXfVtBuKw-136" value="Trigger&amp;nbsp; with &lt;br&gt;&lt;b&gt;GuiParams&lt;/b&gt;" style="edgeLabel;html=1;align=center;verticalAlign=middle;resizable=0;points=[];fontSize=16;" parent="1" vertex="1" connectable="0">
          <mxGeometry x="285.21739130434776" y="1401" as="geometry" />
        </mxCell>
        <mxCell id="Rp6BQwrHiXh8yMFfvTen-2" value="&lt;h1&gt;Same as TUTORIAL 1&lt;/h1&gt;" style="text;html=1;strokeColor=#b85450;fillColor=#f8cecc;spacing=5;spacingTop=-20;whiteSpace=wrap;overflow=hidden;rounded=0;" parent="1" vertex="1">
          <mxGeometry x="1130" y="1385" width="170" height="60" as="geometry" />
        </mxCell>
        <mxCell id="hyHbKj7X-e6RhMjWqB46-1" value="&lt;h1&gt;TUTORIAL 2&lt;/h1&gt;" style="text;html=1;strokeColor=#6c8ebf;fillColor=#dae8fc;spacing=5;spacingTop=-20;whiteSpace=wrap;overflow=hidden;rounded=0;" vertex="1" parent="1">
          <mxGeometry x="1130" y="1041" width="170" height="60" as="geometry" />
        </mxCell>
      </root>
    </mxGraphModel>
  </diagram>
</mxfile>
